<?xml version="1.0" standalone="no"?>
<!DOCTYPE svg PUBLIC "-//W3C//DTD SVG 20010904//EN"
 "http://www.w3.org/TR/2001/REC-SVG-20010904/DTD/svg10.dtd">
<svg version="1.0" xmlns="http://www.w3.org/2000/svg"
 width="2556.000000pt" height="1917.000000pt" viewBox="0 0 2556.000000 1917.000000"
 preserveAspectRatio="xMidYMid meet">

<g transform="translate(0.000000,1917.000000) scale(0.100000,-0.100000)"
fill="#000000" stroke="none">
<path d="M0 9585 l0 -9585 12780 0 12780 0 0 9585 0 9585 -12780 0 -12780 0 0
-9585z m14616 8819 c68 -36 86 -55 138 -144 25 -43 54 -81 64 -85 11 -3 33
-33 50 -68 98 -201 106 -245 107 -537 0 -243 -11 -337 -61 -495 -32 -102 -58
-392 -44 -498 10 -84 -3 -268 -25 -352 -40 -152 -113 -359 -166 -473 -22 -46
-39 -89 -39 -96 0 -6 -4 -16 -9 -22 -14 -13 -240 -464 -234 -464 4 0 -1 -8 -9
-17 -15 -17 -27 -55 -34 -98 -1 -11 -5 -33 -8 -50 -3 -16 -10 -106 -16 -198
-16 -274 -25 -331 -87 -532 -20 -66 -39 -260 -42 -420 -1 -71 -6 -157 -11
-190 -5 -33 -12 -76 -14 -95 -3 -19 -16 -91 -31 -160 -14 -69 -34 -168 -45
-220 -20 -101 -61 -265 -84 -340 -35 -114 -50 -166 -53 -184 -2 -10 -14 -46
-27 -80 -93 -244 -107 -341 -87 -578 11 -118 43 -318 56 -337 3 -5 7 -22 10
-38 12 -79 38 -152 112 -313 89 -193 196 -374 275 -464 15 -17 28 -34 28 -37
0 -3 16 -26 35 -50 19 -24 35 -50 35 -57 0 -7 5 -10 10 -7 6 3 10 1 10 -5 0
-7 13 -29 29 -49 55 -69 117 -185 146 -271 26 -81 62 -233 63 -275 3 -70 1
-218 -3 -225 -5 -9 -17 -78 -16 -102 0 -10 -4 -20 -10 -23 -5 -4 -9 -16 -9
-29 0 -12 -3 -26 -7 -30 -4 -3 -8 -14 -9 -22 -4 -26 -102 -220 -127 -251 -12
-15 -29 -41 -37 -58 -8 -16 -50 -65 -92 -109 -43 -44 -78 -83 -78 -86 0 -4
-11 -12 -24 -20 -42 -22 -40 -47 15 -153 40 -79 68 -117 139 -189 50 -51 102
-116 119 -148 27 -50 36 -59 68 -65 53 -10 132 -52 162 -87 14 -17 42 -60 62
-96 20 -36 44 -71 55 -76 10 -6 42 -25 69 -43 28 -17 73 -42 100 -54 40 -17
58 -33 90 -82 35 -54 46 -63 90 -76 28 -9 52 -18 55 -22 3 -4 43 -26 90 -49
47 -24 111 -60 143 -81 31 -22 84 -57 117 -79 32 -22 63 -40 67 -40 5 0 23
-14 42 -30 18 -17 59 -48 92 -71 32 -22 59 -44 59 -49 0 -6 6 -10 14 -10 8 0
28 -11 44 -25 17 -14 35 -25 41 -25 6 0 11 -3 11 -7 0 -5 17 -19 37 -33 21
-14 56 -39 79 -57 23 -17 73 -48 111 -67 38 -20 78 -44 89 -53 11 -10 27 -22
36 -28 8 -5 53 -35 99 -66 127 -83 291 -179 414 -242 61 -30 133 -67 160 -81
28 -14 104 -52 170 -84 124 -60 266 -144 319 -189 50 -41 130 -119 146 -142
62 -89 183 -322 210 -407 7 -21 22 -57 32 -78 11 -22 42 -107 70 -190 27 -83
57 -160 67 -171 9 -11 34 -49 56 -85 21 -36 72 -117 114 -181 87 -132 91 -138
141 -233 82 -158 131 -256 175 -351 25 -55 59 -125 74 -155 15 -30 36 -79 46
-109 9 -29 24 -65 31 -80 8 -14 14 -33 14 -41 0 -9 4 -20 9 -25 4 -6 18 -37
29 -70 11 -33 30 -85 42 -115 23 -61 68 -214 80 -275 4 -22 18 -69 30 -105 13
-36 26 -78 31 -95 19 -76 84 -237 144 -362 71 -147 126 -293 144 -383 32 -167
46 -367 32 -457 -6 -37 -13 -93 -15 -123 -3 -31 -19 -94 -36 -140 -18 -47 -34
-95 -36 -106 -2 -12 -15 -41 -28 -65 -13 -24 -32 -78 -41 -119 -10 -41 -31
-103 -46 -137 -16 -34 -29 -71 -29 -83 0 -11 -13 -46 -28 -78 -16 -31 -42 -93
-57 -137 -16 -44 -39 -96 -52 -115 -13 -19 -23 -43 -23 -53 0 -17 -38 -79 -53
-85 -4 -2 -4 -8 -1 -14 3 -5 -3 -18 -15 -29 -12 -11 -21 -24 -21 -29 0 -6 -7
-10 -15 -10 -8 0 -15 -5 -15 -11 0 -20 -40 -98 -55 -106 -20 -12 -66 -101 -54
-105 6 -2 0 -15 -14 -30 -25 -26 -41 -57 -39 -70 1 -5 -4 -8 -11 -8 -7 0 -36
-25 -65 -56 -29 -30 -57 -52 -62 -49 -6 3 -10 2 -10 -4 0 -5 6 -11 13 -14 6
-2 9 -7 5 -11 -3 -4 -15 -3 -26 3 -16 8 -21 7 -26 -4 -3 -8 -13 -15 -21 -15
-10 0 -13 -5 -9 -12 4 -7 3 -8 -4 -4 -7 4 -12 2 -12 -4 0 -7 -7 -5 -16 4 -21
22 -27 20 -21 -5 3 -13 1 -19 -6 -16 -7 2 -12 9 -12 15 0 5 -3 14 -7 18 -5 4
-8 12 -8 18 0 6 4 4 10 -4 16 -25 25 0 10 27 -18 32 -60 42 -60 14 0 -18 -18
-31 -45 -31 -21 0 -45 29 -38 47 5 11 3 14 -6 8 -10 -6 -11 -2 -6 16 l7 24
-22 -25 c-12 -14 -28 -24 -36 -22 -8 2 -14 -2 -14 -8 0 -18 -20 -11 -20 8 -1
15 -2 15 -16 -3 -16 -19 -16 -19 -12 7 3 15 1 25 -4 22 -4 -3 -15 2 -24 10
-19 19 -28 20 -46 4 -14 -14 -63 -16 -75 -4 -4 4 3 9 16 13 19 5 21 10 16 32
-4 14 -13 29 -20 34 -8 4 -12 14 -9 22 4 8 1 15 -5 15 -6 0 -11 -6 -12 -12 0
-7 -2 -24 -5 -37 -3 -18 -1 -22 11 -17 10 3 13 2 10 -5 -4 -6 -14 -8 -23 -4
-8 3 -19 0 -23 -7 -4 -7 -11 -9 -16 -5 -4 5 -2 11 4 15 15 10 18 52 5 82 -8
18 -11 20 -11 8 -1 -16 -12 -22 -33 -19 -4 0 -5 -6 -1 -15 5 -13 0 -14 -32 -8
-30 5 -36 4 -30 -6 6 -10 4 -11 -11 -5 -10 4 -29 10 -42 12 -18 5 -20 8 -10
20 10 12 9 14 -7 12 -23 -3 -65 9 -65 19 0 4 7 18 16 30 14 21 14 22 -8 24
-13 0 -29 1 -35 1 -7 -1 -13 4 -13 11 0 6 -9 17 -20 24 -28 17 -16 34 15 22
16 -6 25 -6 25 0 0 6 -4 10 -10 10 -5 0 -10 10 -10 23 0 18 -2 19 -10 7 -9
-13 -11 -13 -20 0 -9 13 -14 7 -11 -12 0 -5 -6 -9 -14 -9 -8 -1 -19 -3 -25 -4
-5 -1 -13 -3 -16 -4 -4 0 -1 -8 6 -16 7 -9 10 -18 6 -22 -3 -3 -6 -1 -6 5 0 6
-9 14 -20 17 -11 3 -20 13 -20 22 0 13 3 13 15 3 12 -10 15 -10 15 3 0 9 -4
19 -10 22 -15 10 -12 41 6 56 9 8 29 13 43 12 19 -1 21 0 6 4 -11 3 -23 10
-27 16 -5 8 -9 5 -14 -6 -3 -9 -13 -17 -21 -17 -12 0 -13 3 -4 13 6 8 8 16 6
19 -10 10 -13 68 -4 74 16 9 0 22 -21 17 -12 -3 -20 -14 -20 -27 -1 -13 -6 -7
-15 19 -8 22 -19 41 -25 43 -5 2 -10 13 -10 25 -1 21 -1 21 -11 3 -9 -14 -8
-20 2 -27 7 -4 11 -11 8 -14 -9 -9 -40 6 -33 16 3 5 -5 9 -18 9 -19 0 -20 2
-8 10 12 8 12 12 2 18 -7 5 -10 16 -7 24 8 19 -18 30 -51 22 -13 -3 -24 -2
-24 2 -1 25 -18 36 -39 25 -27 -15 -28 2 -2 31 20 21 20 21 -5 53 -16 22 -37
35 -60 39 -19 4 -32 11 -28 17 4 6 12 5 22 -3 13 -12 14 -10 4 9 -7 12 -16 25
-22 28 -6 4 -6 15 0 30 5 14 7 25 5 25 -11 0 -20 -5 -18 -11 1 -3 -12 -6 -30
-7 -62 -2 -65 -3 -60 -22 3 -10 0 -21 -6 -24 -7 -4 -9 -1 -5 8 5 13 -28 41
-37 32 -2 -3 -4 11 -5 29 0 19 2 34 5 33 19 -2 22 4 10 19 -8 9 -13 18 -12 19
1 2 0 11 -4 20 -6 15 -7 15 -20 -2 -7 -10 -13 -12 -13 -6 0 7 -9 12 -20 12
-23 0 -26 10 -8 28 9 9 9 12 -2 12 -10 0 -9 4 3 18 19 21 11 38 -10 21 -10 -9
-13 -8 -13 5 0 10 -4 15 -9 11 -14 -8 -25 15 -13 27 6 6 8 17 5 24 -3 9 2 14
16 14 16 0 21 6 21 25 0 14 -4 25 -10 25 -5 0 -10 -7 -10 -15 0 -8 -5 -15 -12
-15 -6 0 -9 3 -5 6 7 7 -29 44 -43 44 -9 0 -15 30 -11 53 1 5 -3 6 -8 2 -6 -3
-8 -12 -4 -20 7 -20 -7 -19 -21 1 -7 9 -23 17 -37 17 -20 2 -24 8 -27 37 -1
19 -11 51 -22 72 -11 21 -17 44 -14 53 4 10 0 15 -10 15 -9 0 -16 7 -16 15 0
8 -6 15 -14 15 -8 0 -16 7 -20 15 -7 18 10 20 18 3 3 -7 3 -2 0 12 -4 21 -1
26 15 27 12 1 21 -3 21 -8 0 -17 28 -40 35 -29 3 5 1 10 -5 10 -7 0 -9 7 -6
16 3 8 -3 24 -13 35 -17 18 -19 19 -25 3 -6 -15 -8 -15 -24 -2 -24 21 -44 27
-63 17 -12 -6 -20 1 -33 31 -10 22 -15 44 -11 50 3 5 -1 10 -9 10 -9 0 -13 -6
-10 -14 3 -8 1 -17 -5 -21 -7 -3 -11 2 -11 15 0 17 -4 19 -24 14 -25 -6 -42 8
-31 26 5 8 11 8 19 1 10 -8 18 -5 31 9 10 11 13 20 7 20 -7 0 -12 14 -12 31 0
27 -2 30 -15 19 -11 -9 -12 -16 -5 -25 14 -17 1 -26 -26 -19 -18 5 -24 2 -24
-11 0 -18 -28 -51 -36 -42 -3 3 3 18 14 34 17 23 19 36 13 75 -6 38 -5 48 6
48 8 0 12 4 9 9 -3 5 -14 7 -24 4 -25 -6 -41 16 -44 60 -2 20 -6 37 -10 37 -8
0 -11 -19 -9 -50 0 -10 -1 -11 -5 -2 -3 6 -13 12 -22 13 -11 0 -12 2 -4 6 6 2
12 12 12 20 0 12 -3 13 -14 4 -7 -6 -21 -9 -30 -5 -9 3 -16 2 -16 -4 0 -6 4
-12 8 -14 5 -2 12 -16 16 -31 6 -24 4 -28 -11 -25 -11 2 -17 11 -15 22 2 10
-1 15 -6 12 -6 -3 -12 1 -15 8 -3 8 -1 17 6 19 9 3 8 8 -2 20 -29 36 -56 8
-40 -40 6 -15 2 -29 -11 -45 -15 -18 -19 -20 -20 -7 0 9 -7 20 -16 23 -13 5
-14 9 -4 20 6 8 13 28 15 45 4 29 2 30 -16 20 -11 -6 -18 -16 -15 -24 7 -19
-4 -26 -25 -14 -20 10 -28 -4 -9 -16 6 -4 5 -13 -3 -25 -9 -16 -19 -19 -44
-14 -27 5 -33 2 -46 -23 l-16 -28 -9 25 c-11 30 5 73 25 66 18 -7 17 9 -2 24
-8 7 -15 9 -15 5 0 -4 -6 -2 -14 4 -11 9 -16 9 -21 0 -6 -8 -10 -7 -17 5 -5 9
-13 14 -19 11 -5 -4 -9 -1 -9 4 0 6 -7 11 -15 11 -8 0 -15 -9 -15 -20 0 -11
-4 -20 -10 -20 -5 0 -7 -8 -4 -18 5 -14 4 -14 -4 -2 -6 8 -8 18 -6 22 6 10
-18 11 -41 2 -13 -5 -14 -8 -3 -15 9 -6 7 -9 -9 -9 -25 0 -30 -14 -11 -26 7
-5 4 -10 -10 -15 -15 -6 -22 -17 -22 -35 0 -24 -3 -25 -27 -19 -16 3 -29 11
-31 15 -2 5 -13 1 -25 -10 -25 -24 -47 -26 -48 -5 -2 24 -4 29 -16 50 -6 11
-15 19 -20 17 -4 -2 -9 1 -11 7 -2 6 3 8 12 5 9 -3 16 -1 16 6 0 6 5 8 10 5 6
-4 8 -11 5 -16 -4 -5 3 -9 14 -9 16 0 20 8 23 38 3 34 8 39 36 30 4 -2 7 0 7
3 0 12 28 39 35 34 5 -3 11 -1 15 5 3 5 0 10 -7 11 -7 0 -2 5 11 10 16 6 28 6
38 -2 24 -21 28 1 4 24 -16 15 -25 18 -28 10 -3 -7 -18 -13 -35 -13 -40 0
-109 -20 -130 -38 -21 -18 -38 -8 -31 18 3 11 0 20 -6 20 -9 0 -15 -18 -13
-41 0 -3 -8 -10 -19 -17 -16 -10 -19 -9 -19 3 0 8 -4 15 -9 15 -5 0 -7 -9 -4
-20 3 -12 -1 -22 -11 -26 -9 -3 -16 -14 -16 -23 -1 -14 -3 -13 -15 3 -8 11
-15 28 -15 38 0 10 -7 18 -16 18 -8 0 -13 3 -10 8 2 4 -2 15 -9 26 -10 13 -18
15 -31 8 -12 -6 -27 -7 -43 -1 -13 6 -30 8 -38 5 -7 -3 -13 -1 -13 5 0 5 10
14 23 19 13 5 16 9 7 10 -57 6 -70 4 -75 -8 -3 -8 -13 -12 -25 -9 -11 3 -19 2
-18 -2 2 -20 -3 -31 -13 -25 -6 3 -9 22 -7 40 3 27 1 33 -10 29 -10 -4 -13 0
-9 14 3 12 -1 22 -9 25 -8 3 -14 13 -14 23 1 16 2 16 16 -2 15 -20 15 -19 12
5 -2 19 -9 25 -28 24 -14 0 -24 -5 -23 -12 4 -17 0 -15 -33 13 -28 24 -29 25
-38 5 -11 -24 -22 -26 -30 -5 -3 8 -13 15 -22 15 -12 0 -15 7 -12 25 3 14 1
28 -3 31 -5 3 -9 10 -9 16 0 6 3 8 7 5 3 -4 12 -2 20 5 17 14 31 2 15 -14 -7
-7 -12 -18 -12 -26 0 -12 3 -12 15 -2 18 15 19 40 3 75 -11 24 -48 36 -48 14
0 -5 5 -7 10 -4 13 8 13 -5 0 -25 -6 -10 -10 -11 -10 -2 0 24 -16 11 -29 -23
-13 -37 -41 -48 -41 -17 0 19 -18 42 -33 42 -5 0 -6 -11 -3 -25 4 -15 2 -25
-4 -25 -13 0 12 -51 34 -69 9 -8 16 -19 16 -25 0 -6 -5 -4 -11 4 -8 11 -12 12
-16 3 -7 -18 -26 -16 -19 2 7 20 -27 20 -44 0 -15 -17 -40 -20 -40 -4 0 6 7 9
15 6 8 -4 17 -2 20 3 4 6 -4 11 -17 11 -18 1 -19 2 -5 6 14 4 18 11 14 29 -2
14 0 27 4 30 5 3 9 11 9 17 0 8 -3 8 -9 -2 -6 -10 -12 -5 -22 17 -10 22 -17
28 -25 21 -8 -7 -14 -6 -19 1 -3 5 -2 10 3 10 6 0 12 7 16 15 4 11 -1 15 -18
15 -20 0 -23 -4 -20 -22 4 -21 4 -22 -5 -3 -5 11 -10 37 -10 58 -1 26 -5 37
-17 37 -8 0 -12 5 -9 10 10 15 33 -6 37 -33 2 -12 10 -22 18 -23 9 0 10 1 3 3
-7 3 -13 9 -13 14 0 5 6 9 13 9 8 0 7 4 -3 10 -13 9 -13 10 0 10 8 0 2 7 -13
15 -30 15 -67 6 -67 -16 0 -6 -6 -9 -14 -6 -7 3 -19 0 -25 -6 -8 -8 -11 -8
-11 2 0 8 -6 11 -16 7 -9 -3 -12 -2 -9 5 4 6 13 8 21 5 22 -9 26 12 4 24 -11
6 -20 17 -20 25 0 10 -10 13 -37 9 -29 -3 -33 -2 -18 5 11 5 15 10 9 10 -6 1
-22 10 -35 22 -22 19 -24 19 -29 3 -6 -16 -7 -16 -14 2 -8 19 -8 19 -16 -1 -8
-19 -9 -19 -9 2 -1 31 -19 38 -27 10 -4 -19 -10 -23 -26 -19 -16 4 -20 2 -15
-10 4 -12 1 -14 -13 -11 -11 3 -18 8 -18 12 1 3 -3 16 -10 29 -7 12 -10 27 -7
32 3 6 0 10 -9 10 -8 0 -16 -6 -19 -12 -3 -10 -8 -10 -21 1 -14 12 -16 12 -11
-2 4 -8 2 -18 -4 -22 -16 -9 -14 -25 3 -25 15 0 28 -58 14 -66 -4 -3 -8 2 -8
10 0 19 -16 21 -23 4 -3 -7 -6 -3 -6 10 -1 16 -6 22 -17 20 -10 -2 -19 3 -21
10 -3 6 0 12 6 12 12 0 3 29 -16 48 -7 7 -17 10 -23 7 -6 -4 -10 9 -11 32 l-1
38 -12 -29 -13 -29 -5 32 c-3 17 -1 34 4 37 16 10 8 24 -14 24 -26 0 -64 -20
-39 -20 11 0 11 -3 1 -15 -10 -12 -16 -13 -27 -4 -9 8 -10 15 -4 19 6 3 2 13
-10 23 -11 10 -24 15 -29 12 -6 -4 -10 2 -10 13 0 28 -11 34 -26 14 -12 -16
-13 -16 -14 0 0 10 -11 19 -30 23 -16 4 -30 13 -30 21 0 10 -8 12 -30 7 -21
-4 -36 0 -49 11 -10 9 -20 13 -24 10 -10 -11 -45 6 -50 25 -3 12 -14 18 -31
18 -24 1 -58 27 -70 56 -3 8 -8 7 -15 -3 -5 -8 -13 -11 -17 -8 -4 4 -16 -4
-26 -18 -14 -17 -26 -23 -39 -19 -11 4 -19 2 -19 -5 0 -6 -4 -8 -10 -5 -5 3
-10 15 -10 25 0 11 -9 24 -20 30 -15 8 -19 17 -14 34 3 13 1 27 -5 30 -6 4
-11 19 -12 34 0 23 -2 24 -8 8 -5 -14 -10 -16 -15 -8 -12 19 -25 14 -32 -12
-3 -13 -15 -26 -26 -29 -27 -7 -68 9 -68 27 0 7 -7 19 -15 26 -8 7 -15 21 -15
31 0 11 -6 19 -14 19 -8 0 -16 5 -18 11 -3 8 -17 10 -43 5 -28 -6 -35 -10 -25
-16 8 -5 12 -12 8 -15 -3 -4 -18 1 -32 10 -14 10 -26 13 -26 7 0 -13 -73 -3
-79 11 -2 5 -7 4 -11 -3 -4 -7 -13 -9 -19 -5 -9 5 -9 10 0 21 10 12 9 16 -8
20 -23 6 -21 44 3 44 8 0 14 4 14 10 0 5 -4 9 -9 7 -5 -1 -17 7 -25 18 -12 16
-18 17 -24 7 -7 -10 -12 -10 -22 3 -12 14 -11 18 1 26 11 7 8 9 -11 10 -58 2
-86 11 -103 34 -10 13 -23 23 -30 21 -7 -1 -9 -1 -4 1 4 3 7 11 7 18 0 15 -55
16 -78 1 -7 -4 -16 -5 -19 -2 -4 3 0 6 7 6 7 0 1 9 -13 20 -14 11 -30 20 -36
20 -6 0 -11 5 -11 10 0 6 -7 10 -15 10 -8 0 -15 3 -15 8 0 14 -59 41 -66 31
-4 -7 -10 -7 -16 -1 -6 6 -16 8 -22 6 -7 -3 -18 7 -26 20 -7 14 -17 23 -22 20
-5 -3 -4 -12 3 -20 9 -11 4 -13 -34 -10 -25 2 -50 7 -57 11 -6 4 -17 2 -23 -4
-16 -16 -25 -14 -32 9 -3 11 -11 20 -17 20 -5 0 -8 -7 -4 -15 4 -10 -4 -17
-27 -23 -18 -5 -34 -6 -37 -3 -7 9 -87 7 -96 -2 -11 -11 -44 -8 -44 3 0 6 9
10 21 10 11 0 18 4 15 9 -4 5 -40 8 -81 7 -42 -2 -78 1 -81 6 -3 5 -12 7 -20
4 -8 -3 -14 -1 -14 3 0 5 -7 12 -16 15 -8 3 -13 2 -10 -3 3 -4 -6 -6 -20 -3
-19 3 -22 7 -12 13 21 14 -9 11 -35 -3 -19 -10 -20 -9 -9 4 11 13 8 16 -18 20
-16 3 -30 1 -30 -4 0 -4 -7 -8 -15 -8 -8 0 -15 7 -15 16 0 8 -4 13 -9 9 -6 -3
-14 3 -20 12 -10 17 -10 17 -11 1 0 -10 -4 -18 -10 -18 -5 0 -10 9 -10 21 0
11 -4 17 -10 14 -6 -4 -26 5 -45 19 -26 20 -41 25 -62 21 -27 -6 -28 -6 -8 11
20 16 19 16 -7 10 -17 -4 -32 -1 -42 9 -8 8 -21 15 -30 15 -8 0 -18 5 -21 11
-4 6 -14 8 -22 5 -12 -5 -14 -1 -11 19 4 21 3 23 -9 14 -10 -9 -18 -8 -33 6
-10 9 -23 14 -29 11 -5 -4 -12 3 -16 14 -3 11 -15 20 -26 20 -10 0 -19 7 -19
15 0 8 -7 15 -15 15 -8 0 -15 5 -15 10 0 6 -12 10 -27 10 -22 0 -25 2 -13 10
12 8 10 10 -9 10 -17 0 -22 4 -17 16 5 13 1 15 -19 10 -20 -5 -23 -3 -18 10 5
13 2 15 -15 9 -12 -3 -22 -2 -22 3 0 5 -10 14 -22 21 -13 6 -15 9 -5 7 9 -3
17 -2 17 3 0 5 -20 12 -45 15 -44 7 -58 19 -32 29 6 3 2 6 -10 6 -12 1 -27 11
-34 22 -9 17 -13 19 -20 8 -9 -15 -8 -16 -29 26 -8 16 -26 32 -40 36 -14 4
-19 7 -12 8 7 1 10 6 6 12 -3 6 -14 9 -25 6 -13 -4 -19 2 -24 24 -7 32 -25 49
-25 25 0 -22 -20 -20 -21 2 0 14 -2 14 -9 -3 -8 -19 -9 -19 -9 1 -1 12 -7 22
-13 21 -42 -1 -58 4 -58 21 0 14 -2 15 -10 2 -9 -13 -10 -13 -10 0 0 8 -17 23
-38 32 -20 10 -29 16 -19 13 9 -2 17 0 17 5 0 6 -4 10 -10 10 -21 0 -25 4 -37
31 -7 16 -19 29 -28 29 -8 0 -15 3 -15 8 0 14 -60 41 -77 35 -11 -4 -14 -3 -9
6 6 8 -4 10 -36 5 -52 -8 -59 -13 -29 -21 13 -3 20 -11 17 -19 -3 -7 0 -16 5
-20 7 -4 7 -10 1 -16 -6 -6 -8 -17 -5 -26 5 -10 2 -13 -6 -8 -7 5 -20 1 -29
-7 -9 -8 -26 -17 -37 -20 -18 -4 -18 -5 3 -6 13 -1 22 -7 22 -17 0 -12 -4 -14
-12 -7 -7 6 -30 13 -50 16 -31 5 -38 3 -38 -11 0 -13 -2 -13 -16 4 -11 13 -17
15 -20 6 -9 -20 -21 -14 -20 11 1 17 -4 21 -21 19 -13 -2 -23 2 -23 7 0 15
-27 14 -34 -1 -2 -7 -4 -2 -3 11 1 14 -4 26 -13 28 -12 4 -13 3 -1 -5 11 -8
10 -12 -5 -20 -16 -8 -19 -6 -21 14 -3 37 -6 54 -9 54 -1 0 -10 -3 -18 -6 -15
-6 -15 -8 1 -20 15 -11 16 -15 4 -26 -8 -7 -11 -8 -8 -2 4 7 1 17 -7 23 -8 7
-12 21 -9 31 4 14 0 20 -11 20 -9 0 -19 7 -22 15 -4 8 -15 15 -25 15 -13 0
-19 7 -19 22 0 17 -3 19 -12 10 -19 -19 -29 -14 -22 13 5 19 2 25 -11 25 -10
0 -13 -4 -9 -12 6 -10 3 -9 -8 0 -9 8 -14 20 -11 28 3 8 0 14 -6 14 -6 0 -11
-7 -11 -16 0 -8 -5 -12 -10 -9 -6 4 -8 16 -5 28 2 12 2 16 -1 10 -8 -18 -24
-16 -24 2 0 9 -9 15 -24 15 -13 0 -29 6 -36 14 -6 8 -21 16 -33 18 -19 3 -18
5 11 18 36 17 42 30 12 30 -11 0 -20 5 -20 10 0 6 9 10 20 10 11 0 20 5 20 10
0 6 -9 10 -20 10 -22 0 -26 10 -9 27 7 7 2 17 -21 33 -23 16 -28 26 -21 33 16
16 13 37 -5 37 -11 0 -14 6 -9 20 4 13 2 20 -7 21 -7 0 -2 5 12 10 23 9 23 11
7 20 -9 6 -15 14 -12 20 4 5 -1 12 -10 15 -13 6 -14 8 -3 15 7 5 -12 7 -47 4
-33 -2 -60 -5 -60 -5 0 -1 -21 -3 -47 -5 -27 -2 -48 -1 -48 3 0 4 -19 13 -43
19 -34 9 -47 20 -65 51 -12 22 -19 47 -16 56 4 10 -2 24 -15 35 -34 29 -103
172 -91 186 8 9 6 14 -5 19 -11 4 -14 13 -9 31 5 19 2 25 -10 25 -11 0 -16 9
-16 29 0 16 -7 34 -15 41 -8 7 -15 19 -15 26 0 8 -7 14 -16 14 -10 0 -14 6
-10 15 3 8 1 15 -5 15 -6 0 -7 5 -4 10 3 6 -1 13 -9 16 -10 4 -16 18 -16 38 0
18 -5 37 -12 44 -8 8 -8 15 0 25 13 15 6 28 -11 21 -7 -2 -13 7 -14 22 0 15
-8 31 -17 36 -9 5 -14 13 -11 19 4 5 -3 23 -15 39 -12 16 -22 39 -23 50 -1 11
-5 20 -9 20 -4 0 -8 9 -8 21 0 11 -4 18 -8 15 -5 -3 -16 4 -25 15 -14 16 -14
19 -2 19 20 0 19 6 -6 41 -14 21 -17 29 -7 30 9 0 10 2 1 6 -7 2 -15 20 -19
39 -4 20 -11 31 -17 27 -6 -4 -8 4 -4 22 2 16 0 37 -7 47 -9 15 -8 21 4 29 11
8 12 12 3 16 -7 2 -13 9 -13 14 0 9 -8 20 -37 53 -6 7 -11 19 -11 27 2 32 -3
50 -11 45 -5 -3 -11 8 -13 25 -3 16 -1 32 4 35 4 3 8 10 8 15 0 6 -5 7 -11 3
-8 -4 -10 8 -8 40 2 25 0 47 -4 49 -5 1 -9 16 -10 32 -1 17 -5 32 -9 35 -4 3
-9 24 -12 48 -6 53 -15 69 -28 51 -7 -10 -8 -9 -4 5 4 10 1 25 -5 32 -6 8 -9
14 -5 14 4 0 0 13 -9 30 -8 16 -14 35 -13 42 2 7 -2 12 -7 11 -6 -1 -10 11 -9
25 1 15 3 36 4 47 l1 20 9 -20 c6 -13 7 0 5 38 -2 32 -9 64 -14 71 -6 7 -8 16
-4 19 3 4 0 13 -6 21 -7 8 -10 19 -7 25 3 5 1 11 -5 13 -9 3 -9 10 1 27 10 20
10 25 -4 33 -20 11 -23 88 -3 89 10 0 10 2 0 6 -7 2 -13 13 -13 23 0 10 -4 22
-10 25 -14 9 -13 105 1 105 7 0 8 7 4 18 -3 9 -8 35 -11 57 -2 22 -7 50 -9 63
-3 14 -1 22 7 22 9 0 9 3 2 8 -20 14 -24 41 -6 51 14 8 14 10 2 11 -12 0 -12
2 -2 9 7 4 14 20 16 35 1 15 8 32 14 38 7 7 12 18 12 25 0 7 4 13 9 13 5 0 11
11 13 25 3 14 1 25 -3 25 -17 0 -9 28 10 33 12 3 20 18 25 48 11 72 26 109 44
109 15 1 14 3 -3 16 -17 13 -18 16 -5 24 8 5 12 10 7 10 -4 0 -1 13 8 30 8 16
15 40 15 54 0 14 4 27 8 30 5 3 8 15 7 28 -1 13 1 30 6 39 5 9 3 21 -3 27 -8
8 -8 15 2 27 11 14 11 16 -1 13 -9 -2 -13 4 -12 17 2 11 5 51 7 88 5 68 5 69
-14 48 -16 -19 -25 -52 -44 -166 -23 -131 -31 -155 -69 -220 -17 -28 -32 -41
-54 -46 -26 -5 -30 -3 -25 13 2 10 1 18 -4 17 -17 -4 -65 24 -53 31 8 5 6 23
-7 63 -10 32 -22 53 -27 50 -6 -4 -8 0 -4 10 3 10 2 17 -3 17 -6 0 -10 5 -10
10 0 6 7 10 16 10 14 0 14 2 3 16 -11 14 -10 18 6 30 17 13 14 19 -7 15 -11
-1 -10 23 2 53 6 16 6 27 0 31 -6 4 -10 19 -10 36 0 21 5 29 18 29 13 0 14 2
4 9 -8 4 -13 17 -12 27 4 36 -1 50 -10 29 -6 -16 -8 -14 -7 13 0 21 3 28 8 20
4 -7 11 -9 15 -5 4 3 2 13 -4 20 -13 16 -8 52 10 74 10 12 9 17 -5 25 -11 6
-16 16 -12 28 4 13 0 20 -15 25 -21 7 -28 25 -9 25 5 0 8 4 5 9 -3 4 -1 23 4
40 11 38 0 61 -41 85 -17 10 -27 24 -26 36 2 24 15 25 54 6 85 -42 163 -75
163 -70 0 9 -61 64 -71 64 -5 0 -9 7 -9 15 0 8 -6 15 -14 15 -8 0 -28 14 -44
30 -17 17 -35 30 -41 30 -20 0 -11 16 19 33 26 16 43 41 23 35 -5 -2 -9 2 -11
7 -1 6 11 11 27 12 16 0 37 5 46 10 36 20 243 -26 286 -63 8 -8 20 -14 25 -14
6 0 44 -31 86 -69 83 -77 139 -162 187 -282 33 -83 98 -325 131 -487 11 -56
32 -138 45 -181 14 -44 34 -121 45 -173 11 -51 35 -140 55 -198 20 -58 45
-148 56 -200 11 -52 33 -149 49 -215 40 -168 48 -215 55 -340 5 -103 8 -113
39 -160 54 -82 112 -193 164 -315 27 -63 79 -176 114 -250 163 -339 190 -399
208 -465 7 -27 16 -54 21 -60 4 -5 9 -33 12 -62 3 -29 8 -57 12 -64 4 -6 2
-15 -5 -19 -9 -6 -10 -16 -3 -36 5 -16 8 -53 7 -83 -3 -69 35 -171 74 -198 47
-31 68 -40 123 -53 30 -7 62 -17 71 -22 21 -10 161 -31 206 -30 18 0 30 -4 27
-9 -3 -5 0 -6 8 -3 13 4 120 -17 227 -45 42 -12 298 -94 358 -116 24 -8 54
-23 68 -32 25 -16 77 -30 147 -40 32 -4 37 -3 34 13 -2 11 -9 29 -15 41 -7 13
-10 23 -7 23 4 0 3 6 -2 13 -8 14 -14 34 -16 59 -1 9 -6 16 -11 15 -5 -1 -10
9 -10 23 -1 15 -10 29 -24 36 -13 6 -23 14 -23 18 0 3 -6 21 -14 40 -8 20 -15
42 -15 50 0 26 -12 46 -27 46 -9 0 -13 6 -9 15 3 9 0 15 -8 15 -8 0 -17 15
-20 32 -4 18 -9 45 -12 60 -3 14 -15 28 -25 31 -11 3 -19 14 -19 27 0 11 -4
19 -8 16 -5 -3 -14 5 -19 17 -33 70 -41 92 -34 95 11 4 2 42 -10 42 -4 0 -19
10 -31 23 -13 13 -30 21 -37 19 -8 -3 -12 1 -8 9 2 8 10 13 16 11 7 -1 9 2 6
8 -4 6 -13 9 -20 6 -19 -7 -27 5 -13 21 9 11 9 16 0 22 -6 3 -14 26 -18 49 -4
23 -11 42 -16 42 -5 0 -7 -4 -4 -8 2 -4 -5 -14 -16 -21 -18 -11 -20 -11 -15 3
4 10 1 16 -9 16 -10 0 -13 -7 -8 -25 5 -21 3 -24 -12 -18 -13 5 -16 3 -11 -10
4 -11 2 -14 -9 -10 -18 7 -18 13 4 29 16 13 16 13 -1 14 -16 0 -16 2 3 22 22
24 23 28 13 54 -6 16 -7 16 -14 -2 -5 -12 -7 -5 -4 20 5 46 -10 80 -31 72 -12
-4 -12 -2 -4 15 6 11 8 29 5 40 -5 15 -2 22 14 26 11 3 18 9 15 15 -3 5 -12 4
-20 -3 -17 -14 -18 -2 -4 37 8 21 8 29 -2 36 -9 5 -7 8 8 8 26 0 37 31 24 66
-8 19 -5 26 13 39 18 12 19 17 8 24 -20 13 -7 52 29 91 18 20 29 39 25 48 -3
9 0 19 7 24 10 6 10 8 0 8 -9 0 -7 8 5 27 10 15 12 24 6 20 -7 -5 -13 -4 -13
2 0 5 8 15 18 20 11 7 13 10 3 11 -10 0 -10 5 3 25 9 14 14 30 11 35 -3 5 -1
11 5 15 6 4 8 10 5 15 -3 5 -1 12 5 15 8 5 8 11 0 20 -6 7 -8 27 -5 44 3 19 1
31 -6 31 -6 0 -9 7 -6 15 4 8 2 17 -3 20 -12 7 -13 68 -3 79 4 4 8 22 9 39 0
18 6 55 12 82 6 28 7 54 2 59 -4 4 -4 22 1 39 6 20 5 35 -3 44 -8 10 -6 19 12
38 22 23 20 30 -5 25 -5 -1 1 10 14 24 15 16 22 32 18 46 -3 11 1 26 8 33 11
12 22 56 25 107 1 10 4 9 9 -5 7 -17 9 -16 15 9 4 18 3 32 -4 36 -8 5 -6 9 5
14 12 4 15 13 12 27 -4 15 -2 19 8 15 9 -3 12 0 8 10 -3 7 0 14 7 14 7 0 9 8
5 19 -4 13 0 20 16 24 15 4 20 11 17 25 -4 15 -1 18 18 16 19 -2 24 2 24 21 0
13 5 27 11 31 7 4 9 0 5 -14 -4 -11 -2 -23 4 -27 6 -3 10 3 10 15 0 12 7 28
16 37 8 9 13 22 10 29 -3 8 0 11 9 8 7 -3 29 -1 49 4 23 7 36 7 36 1 0 -6 6
-7 12 -3 13 8 138 7 146 0 2 -3 14 -1 27 4 13 5 26 5 32 -1 6 -6 21 -11 34
-13 13 -1 34 -8 46 -14 19 -10 22 -10 17 1 -4 11 1 13 20 10 15 -3 23 -10 19
-16 -4 -6 0 -8 9 -4 9 3 21 0 27 -6 8 -8 11 -8 11 0 0 7 12 8 37 3 20 -5 41
-6 45 -4 5 3 31 7 59 10 27 2 82 14 122 27 233 77 231 77 245 40 47 -118 59
-332 29 -523 -9 -58 -19 -167 -22 -244 -9 -236 -36 -360 -110 -509 -35 -71
-36 -91 -4 -107 24 -13 118 -131 151 -190 28 -49 88 -227 88 -261 0 -38 69
-264 114 -372 39 -94 76 -162 97 -177 18 -13 81 -130 108 -199 32 -84 50 -170
52 -246 1 -100 6 -107 107 -146 19 -7 65 -41 102 -75 44 -40 83 -66 107 -73
21 -5 101 -25 178 -45 77 -20 181 -47 230 -61 115 -31 268 -56 359 -57 65 0
213 20 421 57 60 11 114 13 215 7 147 -8 279 -8 435 -2 55 2 123 1 152 -3 43
-5 56 -2 75 13 13 11 17 19 10 20 -9 0 -11 23 -7 95 5 74 3 100 -10 124 -8 17
-16 34 -16 38 0 5 -6 15 -13 23 -7 8 -11 26 -8 40 2 14 4 35 5 47 1 12 4 20 6
17 2 -2 15 6 29 16 16 13 40 20 67 20 41 0 47 -4 107 -73 80 -90 125 -155 144
-210 25 -72 46 -91 98 -92 25 0 51 -6 58 -12 6 -7 17 -13 24 -13 7 0 22 -11
35 -25 13 -13 34 -25 46 -25 20 0 22 4 16 33 -10 52 -36 102 -73 142 -13 14
-20 25 -16 25 5 0 -5 16 -20 35 -53 63 -74 93 -74 104 0 15 -41 81 -51 81 -4
0 -6 7 -3 15 4 9 0 15 -10 15 -12 0 -15 8 -12 33 3 19 -2 46 -10 62 -15 29
-18 65 -8 102 9 34 75 34 119 1 114 -86 158 -126 198 -177 27 -33 52 -61 56
-61 3 0 15 -14 25 -32 l19 -32 10 25 c6 13 9 31 8 40 -1 9 5 19 13 22 16 6 11
47 -6 47 -5 0 -36 28 -68 62 -32 35 -70 75 -84 89 -14 14 -26 31 -26 36 0 6
-12 23 -26 38 -14 16 -31 41 -36 57 -6 15 -14 28 -19 28 -5 0 -9 7 -9 16 0 21
-66 82 -93 86 -12 2 -21 10 -19 17 2 8 -3 11 -12 8 -9 -4 -15 -3 -14 1 2 4
-17 26 -42 50 -69 66 -76 72 -88 72 -7 0 -12 4 -12 10 0 5 -8 6 -17 3 -12 -5
-15 -2 -11 9 6 15 -39 58 -61 58 -6 0 -8 7 -5 15 4 8 1 15 -6 15 -6 0 -8 5 -5
11 4 6 1 9 -8 7 -8 -2 -40 24 -72 57 -32 33 -64 59 -70 58 -6 -2 -16 11 -22
27 -6 17 -18 30 -26 30 -8 0 -20 14 -26 30 -7 22 -16 30 -34 30 -19 0 -27 7
-32 27 -5 22 -8 24 -16 12 -8 -10 -9 -7 -5 14 6 26 -8 39 -17 15 -2 -7 -9 4
-16 24 -7 21 -23 46 -37 57 -13 11 -20 21 -15 23 5 1 3 12 -5 23 -13 17 -16
18 -24 5 -8 -13 -10 -12 -10 3 0 9 -3 17 -7 17 -5 0 -19 16 -32 35 -13 19 -27
32 -32 29 -5 -3 -9 5 -9 18 0 18 -2 20 -10 8 -8 -13 -10 -13 -10 2 0 10 -16
34 -35 54 -19 19 -35 41 -35 47 0 8 -3 8 -8 -1 -6 -9 -12 -5 -20 14 -8 17 -18
24 -28 20 -10 -4 -14 0 -12 12 2 9 -3 16 -9 14 -8 -1 -13 8 -13 22 0 13 -7 26
-15 30 -8 3 -12 11 -10 18 3 8 -10 20 -36 31 -22 10 -39 23 -36 30 4 13 -16
37 -32 37 -6 0 -11 5 -11 10 0 6 5 10 11 10 5 0 7 5 4 11 -4 6 -13 8 -19 6 -7
-3 -18 4 -24 14 -13 21 -42 26 -42 7 0 -7 -17 6 -38 28 -22 21 -37 45 -34 52
2 7 -5 12 -19 12 -19 0 -21 2 -9 10 11 7 12 10 2 10 -9 0 -11 7 -7 23 4 14 3
18 -3 9 -11 -16 -45 -4 -38 14 4 10 -3 14 -22 15 -23 0 -24 1 -7 8 l20 8 -20
7 c-24 8 -57 70 -49 91 4 8 0 23 -7 32 -11 12 -11 17 -2 20 9 3 9 10 -3 28 -9
13 -15 28 -14 32 1 4 -9 11 -22 15 -13 3 -17 6 -10 7 7 1 12 16 12 42 0 23 -4
38 -10 34 -5 -3 -7 -12 -3 -20 3 -11 -2 -15 -17 -15 -19 0 -20 2 -10 15 10 12
9 16 -4 21 -11 4 -15 13 -11 25 5 13 -4 28 -27 49 -25 23 -28 30 -15 30 12 0
16 -5 11 -12 -5 -10 -4 -10 6 -1 17 16 4 33 -26 33 -17 0 -24 5 -24 20 0 13
-9 22 -25 26 -19 5 -23 10 -15 19 7 9 -1 15 -33 25 -34 10 -38 14 -22 20 13 4
3 7 -28 7 -26 1 -45 -3 -41 -8 3 -5 -2 -9 -10 -9 -8 0 -18 5 -21 10 -4 6 -1 9
6 8 7 -2 15 5 17 15 2 9 -1 17 -7 17 -6 0 -11 -4 -11 -10 0 -5 -7 -7 -16 -3
-8 3 -13 11 -10 18 3 8 -2 16 -11 19 -8 4 -13 13 -9 21 3 9 0 15 -9 15 -8 0
-15 5 -15 10 0 6 -6 10 -14 10 -7 0 -19 7 -26 15 -7 9 -21 13 -31 10 -13 -4
-19 -1 -19 8 0 11 -7 13 -22 9 -17 -4 -20 -2 -15 11 3 9 0 18 -9 21 -8 3 -14
14 -14 24 0 10 -6 24 -12 31 -11 10 -10 11 5 6 10 -4 17 -2 17 4 0 6 -4 11 -9
11 -14 0 -22 43 -9 51 7 4 2 11 -12 19 -18 10 -20 14 -9 21 12 8 12 11 -1 19
-8 5 -23 10 -32 10 -10 0 -18 4 -18 9 0 5 8 12 18 15 9 3 5 4 -10 2 -16 -2
-28 1 -28 5 0 5 5 9 10 9 6 0 10 5 10 10 0 6 -7 10 -15 10 -8 0 -15 7 -15 16
0 8 5 12 10 9 6 -3 10 -1 10 6 0 7 -10 9 -29 6 -35 -7 -45 1 -28 21 9 12 9 16
0 19 -7 3 -13 12 -13 21 -1 10 -8 28 -16 42 -14 24 -15 24 -11 3 3 -15 0 -23
-8 -23 -7 0 -13 6 -12 13 1 45 -5 67 -18 67 -14 0 -20 13 -16 34 1 5 -4 13
-11 18 -11 6 -11 10 1 17 9 6 10 11 2 15 -6 4 -11 16 -11 26 0 10 -7 26 -16
34 -9 9 -11 16 -4 16 6 0 8 5 4 11 -3 6 0 15 7 20 12 7 11 11 -3 25 -12 13
-14 21 -6 34 8 13 7 25 -6 50 -9 18 -16 41 -16 51 0 10 -9 24 -21 32 -12 9
-16 16 -9 19 9 3 6 14 -8 37 -11 18 -17 41 -15 52 4 15 2 18 -11 13 -12 -5
-16 0 -16 21 0 16 -9 36 -22 46 -11 11 -18 22 -15 25 3 4 2 15 -3 24 -8 15 -6
17 13 13 16 -3 18 -2 8 5 -7 5 -11 15 -7 21 5 7 1 8 -10 4 -13 -5 -15 -2 -10
18 3 13 3 18 0 12 -9 -21 -27 -15 -21 7 3 13 -1 24 -14 30 -11 6 -19 21 -19
35 0 14 -6 25 -12 26 -9 0 -9 2 -2 5 14 6 6 50 -18 92 -10 18 -18 41 -18 52 0
11 -4 20 -9 20 -6 0 -10 -51 -10 -117 0 -144 -30 -337 -71 -457 -29 -88 -94
-203 -135 -242 -12 -11 -30 -32 -40 -47 -9 -15 -21 -24 -26 -21 -5 3 -8 2 -7
-3 2 -4 0 -8 -3 -8 -3 0 -13 -6 -22 -14 -14 -11 -17 -11 -17 0 -1 10 -4 8 -11
-3 -21 -38 -62 -48 -181 -48 -46 1 -68 -3 -68 -11 0 -8 -7 -6 -18 4 -10 10
-25 17 -33 16 -10 0 -10 -2 -1 -6 21 -8 13 -21 -13 -19 -17 1 -25 7 -25 19 0
9 -2 17 -4 17 -2 0 -13 3 -23 7 -17 6 -17 6 0 -15 19 -20 18 -21 -5 -15 -35 9
-49 24 -43 44 4 11 2 19 -4 19 -5 0 -12 9 -16 19 -5 15 -11 18 -33 12 -75 -19
-262 23 -262 59 0 9 46 30 68 30 15 0 15 2 2 10 -13 9 -12 12 5 26 12 9 19 24
17 38 -2 13 2 27 7 31 6 3 11 10 11 16 0 13 -38 11 -42 -2 -2 -7 -9 -5 -17 5
-12 14 -12 16 1 11 8 -3 24 3 36 13 26 23 28 32 7 32 -8 0 -15 9 -15 20 0 11
4 20 10 20 6 0 6 9 1 23 -4 12 -6 27 -4 34 2 6 -1 14 -6 18 -6 3 -12 -2 -12
-12 -1 -10 -4 -4 -8 12 -5 24 -3 32 14 39 13 5 16 10 8 13 -7 3 -12 17 -12 31
1 17 3 21 6 10 2 -10 12 -18 21 -17 10 0 12 3 5 5 -7 3 -9 12 -6 20 3 9 -1 14
-12 14 -10 0 -13 4 -8 13 4 6 7 23 8 36 0 15 8 27 20 32 17 6 15 8 -10 9 -28
1 -29 2 -10 13 24 14 32 39 10 31 -8 -4 -15 -2 -15 4 0 6 6 12 13 14 14 5 18
58 3 58 -5 0 -1 9 8 19 16 17 16 22 2 56 -9 21 -16 48 -16 61 0 16 -4 22 -14
18 -11 -4 -13 0 -9 15 3 12 -3 28 -16 42 -12 13 -21 26 -21 31 0 4 -7 8 -15 8
-8 0 -15 4 -15 8 0 5 -10 8 -22 8 -17 -1 -24 5 -26 23 -2 13 2 28 10 32 10 7
10 9 1 9 -7 0 -13 10 -13 23 1 20 2 20 11 5 18 -31 27 -19 24 31 -2 42 0 50
17 54 12 3 17 10 13 17 -4 6 -13 9 -19 7 -9 -4 -8 5 3 29 9 19 24 33 34 34 10
0 20 6 22 13 4 8 35 13 98 14 50 1 95 2 98 2 18 2 16 35 -3 62 -19 25 -26 28
-56 23 -27 -5 -34 -3 -38 13 -3 10 -14 25 -25 32 -17 10 -25 10 -42 -2 -19
-12 -24 -12 -35 0 -8 8 -22 11 -32 8 -11 -3 -20 0 -24 10 -3 8 0 15 6 15 6 0
9 3 5 6 -10 10 14 64 29 64 8 0 14 5 14 10 0 6 -4 10 -10 10 -5 0 -10 5 -10
11 0 5 4 8 8 5 4 -2 14 -1 22 5 10 6 11 9 3 9 -7 0 -15 -1 -16 -2 -2 -2 -11 3
-20 11 -24 20 -41 8 -57 -38 -16 -50 -29 -60 -46 -37 -7 10 -16 17 -20 16 -18
-3 -14 19 4 24 10 4 24 18 31 32 12 27 6 47 -32 94 l-19 25 7 -32 c9 -42 -1
-42 -19 0 l-14 32 -1 -27 c-1 -30 -21 -39 -21 -10 0 10 -5 23 -11 29 -7 7 -8
22 -1 46 7 26 7 37 -1 40 -7 3 2 10 18 17 22 10 26 14 13 17 -9 2 -26 -5 -37
-16 -12 -12 -16 -21 -11 -21 6 0 10 -8 10 -17 0 -16 -1 -16 -17 -1 -15 16 -15
19 2 44 16 24 16 26 1 21 -13 -5 -15 -3 -8 11 11 21 5 42 -13 42 -21 0 -45 56
-31 70 8 8 6 9 -9 4 -16 -6 -18 -5 -7 7 19 20 14 31 -9 24 -15 -5 -19 -4 -14
4 4 7 2 18 -4 25 -7 8 -11 18 -9 22 3 13 -31 74 -42 74 -5 0 -7 12 -5 28 2 18
8 27 19 26 9 -1 16 2 16 7 0 5 -6 9 -12 9 -7 0 -14 12 -15 27 -1 19 1 22 8 12
6 -10 9 -5 9 18 0 20 7 36 18 42 15 9 14 11 -8 11 -23 1 -23 2 -5 10 24 9 52
40 38 40 -6 0 -8 19 -5 48 2 26 5 57 4 70 0 18 3 20 13 12 10 -8 15 -8 21 1 4
7 3 14 -3 16 -6 2 -8 14 -5 25 4 17 2 20 -12 15 -14 -5 -17 -2 -15 16 4 39
-12 77 -32 77 -10 0 -19 5 -19 10 0 6 7 10 15 10 8 0 15 4 15 10 0 5 34 37 76
70 42 33 70 60 63 61 -8 0 -3 5 11 11 20 9 22 12 8 15 -16 4 -16 6 2 26 11 11
20 24 20 29 0 11 -18 10 -25 -2 -9 -15 -22 -12 -29 6 -3 8 -2 12 4 9 16 -10
12 12 -6 29 -8 9 -24 16 -35 16 -10 0 -19 5 -19 10 0 6 -11 21 -25 34 -14 13
-25 28 -25 35 0 6 -7 11 -15 11 -10 0 -15 7 -13 17 4 25 -26 23 -34 -2 -5 -16
-6 -15 -7 9 -1 21 -5 27 -16 22 -8 -3 -14 0 -12 6 1 7 -8 13 -20 14 -21 1
-100 74 -80 74 5 0 5 5 -2 13 -6 8 -9 16 -6 19 3 3 -5 13 -17 24 -12 10 -18
13 -14 7 5 -9 0 -13 -14 -13 -16 0 -20 5 -16 15 4 10 -1 15 -15 15 -18 0 -20
5 -16 27 4 23 -2 34 -38 68 -37 34 -43 45 -41 75 2 25 -4 40 -22 57 -13 12
-21 27 -17 32 3 6 -2 11 -13 11 -11 0 -22 7 -26 15 -3 9 0 15 10 15 8 0 13 4
9 10 -3 5 -13 7 -23 4 -14 -5 -15 -4 -2 5 13 10 13 12 0 22 -11 8 -12 12 -2
16 19 7 14 20 -9 26 -13 3 -18 10 -14 17 4 6 -2 20 -14 31 -15 14 -19 27 -15
44 4 15 2 25 -5 25 -6 0 -11 11 -11 25 0 34 -41 51 -88 37 -18 -6 -30 -6 -26
-1 9 15 -12 10 -25 -5 -9 -11 -9 -15 1 -19 7 -3 4 -6 -7 -6 -22 -1 -48 -50
-64 -122 -11 -48 -9 -46 -43 -54 -22 -6 -29 -3 -34 11 -3 11 -12 32 -21 47 -8
15 -12 35 -9 43 3 7 2 14 -3 14 -15 0 -22 63 -9 72 10 6 10 10 -2 18 -9 6 -10
10 -3 10 7 0 14 26 18 65 8 68 1 120 -15 110 -5 -3 -15 3 -22 15 -14 21 -43
27 -53 10 -9 -15 -51 -12 -65 5 -6 8 -9 18 -6 24 3 5 -1 12 -10 15 -8 3 -12
11 -8 17 3 6 2 14 -4 18 -6 4 -7 24 -2 54 l7 49 -33 -4 c-19 -2 -32 1 -31 6 1
6 -8 12 -21 14 -12 2 -22 9 -21 15 1 7 1 25 0 40 -1 23 -5 28 -23 25 -23 -3
-58 23 -58 42 0 6 -8 10 -17 10 -14 0 -15 2 -5 9 10 6 7 10 -13 15 -16 4 -32
3 -38 -3 -18 -18 -30 -13 -24 9 4 15 -2 24 -22 35 -24 12 -28 20 -30 68 -1 39
3 59 14 71 18 18 22 42 10 69 -6 14 -3 16 11 11 14 -4 15 -3 6 3 -7 6 -14 20
-15 31 -1 12 -5 22 -11 22 -5 0 -1 9 8 19 13 15 14 20 4 23 -11 4 -10 8 1 21
12 15 11 17 -3 17 -13 0 -16 5 -11 20 8 24 -3 25 -40 6 -33 -17 -70 -7 -71 20
-2 39 -4 44 -20 44 -11 0 -14 6 -9 20 5 16 2 20 -15 20 -12 0 -18 5 -15 10 3
6 1 10 -5 10 -7 0 -14 -9 -17 -20 -6 -22 -20 -25 -43 -10 -13 8 -12 10 3 10 9
0 17 4 17 9 0 11 -25 21 -55 21 -29 0 -39 40 -17 71 14 20 13 21 -7 14 -17 -5
-21 -2 -22 14 -1 12 -2 27 -3 34 -1 6 -5 15 -11 20 -6 4 -6 10 2 15 7 4 11 24
10 44 -2 34 -4 36 -31 33 -16 -2 -33 -10 -37 -17 -6 -9 -9 -5 -10 12 -1 17 -3
19 -6 8 -6 -24 -23 -23 -23 2 0 13 -7 20 -18 20 -14 0 -18 8 -19 35 -1 23 4
35 13 35 7 0 11 6 8 14 -5 14 -54 20 -54 6 0 -4 -17 -12 -37 -18 -28 -9 -44
-22 -63 -54 -13 -24 -23 -46 -22 -50 1 -5 -2 -8 -8 -8 -13 0 -1 -32 18 -47 19
-16 10 -93 -12 -105 -9 -5 -14 -13 -11 -19 4 -5 1 -9 -4 -9 -6 0 -11 -7 -11
-15 0 -18 -25 -31 -75 -40 -31 -5 -37 -4 -25 5 12 9 9 10 -14 8 -17 -2 -31 2
-33 10 -3 6 4 12 14 13 11 0 13 3 5 6 -23 9 -52 84 -47 122 3 20 7 45 8 56 1
11 7 27 12 35 5 8 11 24 12 35 2 10 7 22 11 25 4 3 7 12 7 20 0 9 7 14 18 12
11 -2 17 4 17 18 0 12 9 24 23 30 17 7 18 9 5 9 -20 1 -21 2 -12 26 6 13 9 14
16 3 6 -9 7 -6 3 10 -4 15 -2 22 7 22 10 0 9 3 -2 10 -10 6 -11 10 -2 10 6 0
12 6 12 14 0 7 11 24 24 37 27 28 39 84 20 100 -9 8 -12 4 -9 -18 5 -38 -2
-60 -23 -68 -14 -5 -15 -4 -4 6 17 18 15 46 -4 53 -9 3 -34 6 -55 6 -36 0 -40
2 -34 20 7 23 -10 28 -19 5 -3 -8 -11 -15 -18 -14 -10 0 -10 2 0 6 6 2 12 10
12 16 0 6 7 18 15 27 18 20 7 64 -17 68 -23 4 -23 -15 0 -22 14 -4 14 -5 -3
-4 -38 1 -45 -2 -45 -17 0 -8 -9 -15 -20 -15 -13 0 -20 -7 -20 -20 0 -11 -7
-20 -16 -20 -8 0 -12 -5 -9 -10 8 -13 -40 -31 -60 -24 -8 4 -15 2 -15 -4 0 -5
-8 -12 -18 -14 -15 -4 -18 1 -16 31 1 20 0 30 -3 24 -7 -18 -33 -16 -33 2 0 8
-4 15 -10 15 -5 0 -10 -6 -10 -14 0 -21 -17 -29 -45 -22 -22 6 -23 8 -10 33 8
15 12 37 9 49 -3 12 -1 25 5 29 7 4 8 12 2 23 -12 23 -10 95 3 104 7 5 5 8 -4
8 -13 0 -13 2 -1 9 12 8 12 12 2 25 -7 8 -12 28 -11 43 3 47 1 51 -35 57 -19
4 -35 11 -35 16 0 6 -7 10 -15 10 -8 0 -15 6 -15 13 0 16 -56 78 -64 70 -3 -4
-6 1 -6 10 0 9 3 16 8 14 4 -1 7 3 7 8 0 6 -3 9 -7 8 -5 -2 -8 4 -8 13 0 8 5
12 10 9 16 -10 12 12 -6 30 -11 10 -14 24 -10 43 5 20 4 23 -4 12 -8 -12 -10
-11 -10 9 0 16 -4 21 -15 17 -25 -9 -18 40 7 58 12 9 17 16 11 16 -8 0 -10 7
-6 18 9 24 55 72 69 72 7 0 14 7 18 15 3 8 17 15 31 15 14 0 28 7 32 16 3 8
11 13 18 10 8 -3 16 2 19 10 3 8 15 14 26 14 11 0 20 4 20 8 0 14 87 34 147
33 45 0 77 -8 129 -31 38 -18 85 -39 104 -47 40 -19 60 -36 61 -55 0 -10 2
-10 6 -1 5 14 43 -1 43 -17 0 -19 58 -72 71 -65 7 5 17 2 23 -7 16 -20 44 -29
50 -15 3 9 8 8 16 -3 9 -11 13 -12 17 -2 6 15 24 16 20 1 -1 -6 18 -11 47 -13
31 -1 53 -8 60 -18 7 -9 32 -19 57 -23 24 -4 46 -11 47 -16 2 -5 11 -9 20 -9
23 -1 50 -22 45 -36 -2 -7 2 -18 10 -25 7 -8 12 -19 10 -26 -2 -6 1 -14 6 -18
6 -3 11 -17 11 -30 0 -13 11 -36 24 -52 13 -15 23 -30 23 -33 -2 -8 46 -70 54
-70 5 0 20 -11 34 -25 15 -13 43 -29 63 -36 77 -24 217 -82 220 -90 2 -5 9 -9
15 -9 6 0 41 -16 78 -35 38 -19 76 -35 85 -35 41 0 188 -58 223 -89 12 -11 29
-17 37 -14 16 6 16 6 -38 66 -9 11 -14 26 -11 34 5 12 7 12 15 1 7 -9 8 -8 6
7 -3 14 -10 19 -26 17 -24 -4 -29 7 -10 26 9 9 8 12 -5 12 -9 0 -17 -5 -17
-12 0 -6 -3 -8 -6 -5 -12 12 16 35 36 30 25 -7 25 2 1 28 -11 12 -24 18 -30
14 -7 -3 -11 2 -11 14 0 11 -6 24 -12 28 -7 4 -13 14 -13 22 0 8 -8 15 -18 17
-11 1 -22 6 -25 10 -4 4 0 5 9 2 9 -4 22 -2 30 3 10 6 10 9 2 9 -7 0 -13 7
-13 16 0 10 6 14 15 10 20 -7 20 18 0 38 -13 13 -14 19 -3 36 11 17 11 22 -2
30 -13 8 -13 10 2 10 9 0 19 -8 21 -17 4 -16 5 -16 6 -1 0 9 -6 23 -14 32 -17
16 -20 36 -6 36 5 0 7 9 4 20 -3 12 0 20 6 20 7 0 10 4 7 9 -3 5 -14 7 -24 4
-28 -7 -56 61 -29 70 6 2 2 2 -10 0 -15 -2 -23 2 -23 11 0 8 -4 18 -10 21 -6
3 -7 -1 -4 -9 4 -11 0 -16 -10 -16 -17 0 -18 2 -20 51 -1 24 2 29 17 25 11 -3
17 2 17 12 0 12 3 13 12 4 20 -20 26 -14 19 20 -5 24 -13 34 -32 38 -21 4 -24
9 -18 35 l7 30 1 -27 c1 -20 5 -26 16 -22 8 4 15 12 15 20 0 8 5 14 10 14 6 0
10 -4 10 -10 0 -5 5 -10 11 -10 5 0 8 4 5 9 -3 5 1 12 10 15 20 8 8 26 -17 26
-22 0 -24 10 -6 29 10 11 10 14 0 18 -21 7 -15 22 6 16 10 -3 22 0 25 6 4 7
-1 11 -14 11 -12 0 -19 4 -16 9 3 5 -1 11 -9 15 -8 3 -15 13 -15 21 0 21 -25
46 -35 37 -5 -4 -5 -2 -2 5 4 6 17 9 30 6 20 -4 20 -4 -3 9 -14 8 -24 20 -23
26 2 6 -8 14 -22 18 -14 3 -25 11 -25 16 0 6 -7 8 -15 4 -8 -3 -15 -1 -15 4 0
6 5 10 10 10 6 0 10 7 10 15 0 12 -5 13 -26 4 -32 -12 -42 -5 -24 16 12 14 10
15 -13 10 -23 -6 -27 -4 -27 15 0 16 -4 20 -19 15 -11 -3 -22 -1 -26 5 -11 18
-23 11 -18 -10 3 -11 0 -20 -6 -20 -6 0 -11 11 -11 25 0 14 -6 25 -12 26 -7 1
-2 4 12 8 14 4 20 9 15 13 -6 3 -23 -1 -40 -8 -19 -8 -23 -13 -12 -14 16 0 26
-20 10 -20 -5 0 -17 -3 -29 -6 -15 -4 -21 -1 -21 13 0 10 5 21 11 25 8 6 8 8
0 8 -6 0 -17 -7 -24 -15 -18 -22 -24 -19 -38 18 -7 17 -17 39 -22 48 -4 8 -4
24 2 35 9 17 8 17 -9 -1 -10 -12 -27 -27 -37 -35 -17 -14 -18 -13 -12 8 5 14
3 22 -4 22 -7 0 -9 7 -6 17 4 9 1 20 -6 24 -7 4 -9 11 -5 16 4 4 17 2 27 -5
24 -15 30 -15 30 -2 0 6 -5 10 -11 10 -6 0 -16 6 -22 13 -14 14 -19 67 -6 67
5 0 9 4 9 9 0 5 -10 7 -22 4 -22 -4 -23 -4 -4 11 11 9 23 16 28 16 4 0 8 4 8
9 0 5 -9 7 -20 4 -17 -4 -20 0 -20 23 0 21 -3 25 -9 15 -7 -10 -9 -7 -8 11 1
16 7 24 15 21 6 -3 12 0 12 6 0 6 -6 11 -12 12 -7 0 -3 5 10 11 12 6 22 17 22
25 0 7 4 13 9 13 5 0 11 9 14 20 3 11 9 20 14 18 4 -1 24 6 43 17 19 11 37 20
40 20 3 1 16 6 30 12 34 15 63 26 75 28 41 6 135 30 135 35 0 9 209 9 282 -1
102 -13 182 -51 403 -194 145 -94 239 -144 290 -152 17 -3 37 -8 45 -13 24
-12 86 -21 176 -25 75 -4 82 -2 78 13 -5 14 -4 14 4 3 9 -12 17 -13 46 -4 20
6 34 7 30 2 -3 -5 2 -9 12 -9 14 0 14 -3 4 -15 -20 -25 -4 -29 20 -5 12 12 26
20 32 18 19 -7 -33 -47 -69 -54 -18 -3 -30 -10 -27 -15 3 -5 -5 -9 -16 -9 -16
0 -20 -5 -16 -15 3 -10 -1 -15 -13 -15 -10 0 -31 -11 -46 -24 -16 -14 -32 -23
-36 -21 -4 3 -9 -4 -12 -14 -2 -11 -15 -21 -28 -23 -18 -2 -24 -9 -23 -26 0
-14 -4 -21 -11 -18 -7 2 -19 -4 -28 -15 -9 -10 -25 -19 -35 -19 -25 0 -42 -19
-42 -47 0 -18 -6 -23 -25 -23 -14 0 -25 6 -25 13 0 6 -6 1 -13 -13 -7 -14 -22
-26 -32 -26 -37 -3 -40 -5 -20 -15 17 -8 16 -9 -7 -6 -16 3 -28 0 -28 -4 0 -5
6 -9 13 -9 6 0 4 -5 -6 -11 -10 -6 -24 -9 -30 -6 -22 8 -57 -11 -51 -28 4 -10
0 -15 -10 -15 -9 0 -16 -4 -16 -10 0 -5 -17 -7 -37 -5 -21 2 -32 1 -25 -1 29
-13 10 -26 -28 -20 -41 6 -57 -7 -19 -17 12 -3 18 -10 14 -16 -7 -13 -35 -15
-35 -2 0 4 -11 6 -25 3 -19 -3 -24 -9 -20 -22 3 -9 -1 -23 -10 -30 -8 -7 -15
-20 -15 -29 -1 -18 -23 -51 -35 -51 -4 0 -5 6 -2 13 4 10 -3 13 -24 12 -16 -1
-29 1 -29 5 0 4 -14 10 -31 14 -17 3 -28 10 -25 15 3 5 -1 12 -10 15 -11 4
-18 -1 -21 -14 -3 -11 -13 -20 -22 -21 -12 0 -11 -2 4 -9 15 -6 6 -9 -32 -9
-29 -1 -53 -5 -53 -11 0 -5 7 -10 15 -10 9 0 18 -7 21 -15 8 -21 22 -19 20 3
0 9 6 17 14 17 10 0 14 -8 12 -27 -6 -47 16 -31 24 17 6 41 9 45 28 39 26 -8
31 -12 23 -20 -4 -4 -13 -1 -22 6 -12 10 -15 10 -15 -3 0 -20 9 -25 54 -31 33
-4 36 -2 31 15 -8 25 3 24 25 -1 15 -17 19 -18 29 -6 12 15 78 15 101 1 7 -4
16 -2 20 5 7 11 12 10 25 -3 9 -10 21 -15 26 -12 5 4 9 1 9 -4 0 -15 -37 -14
-43 2 -4 9 -8 9 -15 -2 -6 -8 -17 -11 -26 -8 -9 4 -16 2 -16 -3 0 -10 35 -14
100 -10 32 1 34 0 19 -15 -16 -17 -14 -80 2 -69 5 3 6 10 3 16 -8 12 15 58 29
58 5 0 7 -15 4 -35 -3 -19 -2 -35 4 -35 5 0 9 6 9 14 0 16 50 38 93 41 24 2
27 0 21 -18 -6 -18 -3 -19 29 -14 30 5 40 1 66 -23 18 -18 31 -24 34 -17 3 9
8 9 20 -2 9 -7 14 -18 10 -24 -4 -6 0 -8 11 -4 12 5 19 0 26 -18 6 -16 15 -23
25 -19 8 3 15 1 15 -5 0 -6 7 -11 15 -11 8 0 15 -4 15 -10 0 -5 13 -16 29 -24
22 -12 31 -12 40 -3 9 9 14 9 20 -1 5 -8 10 -13 12 -12 2 1 13 -2 23 -6 13 -5
21 -3 24 5 3 9 7 9 18 0 7 -6 29 -11 49 -11 19 0 32 -4 29 -9 -5 -8 12 -13 44
-12 6 1 12 -5 12 -13 0 -8 7 -14 16 -14 8 0 12 -4 9 -10 -3 -6 1 -7 9 -4 9 3
16 1 16 -4 0 -6 10 -22 23 -35 46 -47 82 -93 95 -117 24 -46 70 -93 85 -87 8
3 18 26 21 51 5 30 12 46 22 46 17 0 19 17 2 23 -8 3 -3 9 12 15 14 6 18 11
10 12 -8 0 -1 7 15 14 18 8 38 29 50 52 24 48 33 55 64 52 14 -2 26 3 29 11 3
10 0 12 -12 8 -9 -4 -16 -2 -16 3 0 6 6 10 14 10 8 0 17 7 20 16 3 8 14 14 23
12 10 -1 24 1 31 6 7 4 19 2 28 -5 13 -11 14 -9 9 14 -6 21 -4 27 9 27 9 0 16
-8 17 -17 0 -14 3 -13 11 5 13 26 23 28 32 7 3 -9 -1 -18 -9 -21 -8 -4 -15
-12 -15 -19 0 -20 28 -38 47 -30 33 14 39 13 40 -9 1 -11 -1 -15 -4 -8 -8 20
-25 14 -18 -7 3 -11 1 -22 -5 -26 -5 -3 -10 -11 -10 -16 0 -6 4 -8 8 -5 5 3 9
-1 9 -9 0 -8 -4 -12 -8 -10 -3 3 -9 -5 -12 -16 -7 -27 12 -59 35 -59 22 0 22
-4 2 -36 -13 -19 -14 -28 -5 -37 19 -19 12 -31 -8 -13 -17 16 -18 15 -16 -18
2 -22 -2 -40 -12 -48 -14 -11 -35 -52 -37 -71 -1 -4 -8 -12 -16 -17 -8 -5 -12
-12 -8 -15 3 -4 -2 -25 -12 -48 -10 -23 -36 -86 -59 -140 -23 -54 -54 -117
-68 -140 -15 -23 -28 -48 -29 -55 -1 -7 -14 -28 -28 -47 -20 -26 -26 -45 -26
-84 0 -27 4 -52 9 -56 6 -3 10 -13 10 -23 0 -9 6 -46 14 -82 9 -36 20 -104 26
-151 15 -118 71 -305 91 -303 35 2 40 5 40 19 0 8 7 15 15 15 9 0 18 8 22 18
9 26 71 82 77 69 2 -7 5 -5 5 4 1 9 11 23 24 32 42 28 75 62 80 82 4 15 5 14
6 -7 1 -35 21 -47 21 -13 0 24 2 25 15 11 8 -8 15 -21 15 -28 0 -10 -3 -9 -10
2 -8 13 -10 12 -10 -2 0 -10 -8 -18 -17 -19 -15 0 -14 -2 3 -9 16 -6 20 -15
17 -34 -3 -14 -11 -26 -18 -26 -8 0 -10 -9 -7 -25 3 -21 1 -24 -13 -19 -11 5
-16 2 -14 -7 3 -19 -31 -99 -43 -99 -5 0 -6 -5 -3 -10 6 -10 -17 -40 -30 -40
-3 0 -22 -18 -42 -40 -21 -22 -43 -40 -50 -40 -7 0 -13 -7 -13 -15 0 -8 -4
-15 -10 -15 -5 0 -10 -5 -10 -11 0 -7 -7 -17 -16 -23 -12 -10 -15 -38 -15
-166 0 -85 4 -186 10 -225 5 -38 13 -134 17 -212 5 -109 10 -143 20 -143 14 0
29 41 26 73 0 9 3 17 7 17 4 0 13 16 20 35 7 19 16 35 21 35 5 0 7 14 5 30 -2
17 2 36 9 43 24 25 56 89 57 115 l1 27 8 -25 8 -25 1 28 c1 15 6 27 11 27 6 0
10 6 10 14 0 8 4 16 8 18 4 2 15 26 24 53 12 38 13 53 4 64 -9 12 -8 14 5 9
13 -5 16 0 13 28 -1 23 1 32 9 27 6 -4 8 0 4 10 -3 10 -3 17 2 17 11 0 26 44
29 83 1 11 7 15 14 11 8 -5 9 -2 4 11 -4 11 0 25 9 35 8 9 16 33 17 53 2 20 6
37 11 37 4 0 7 7 7 15 0 8 5 15 10 15 6 0 10 7 10 15 0 26 34 125 43 125 5 0
3 8 -4 18 -7 9 -9 14 -5 9 5 -4 19 22 32 57 24 70 59 139 87 170 9 11 17 24
17 29 0 5 7 7 15 3 14 -5 20 5 16 27 -1 5 8 6 19 2 15 -5 18 -3 14 9 -6 15 31
42 54 38 11 -3 16 10 13 30 0 4 6 5 14 2 8 -4 15 -1 15 6 0 7 7 10 15 6 8 -3
15 -1 15 4 0 6 -4 10 -10 10 -15 0 -12 20 3 20 18 1 50 76 42 100 -5 15 -3 18
9 14 11 -4 16 0 16 15 0 13 -6 21 -17 21 -17 1 -17 1 0 14 9 7 17 21 17 30 0
9 5 16 11 16 6 0 8 12 5 33 -3 17 -3 27 0 20 4 -10 8 -10 19 0 7 7 11 15 8 20
-2 4 1 7 7 7 7 0 8 6 1 19 -12 21 -5 32 15 24 8 -3 14 0 14 6 0 6 -3 11 -7 11
-7 0 -8 15 -4 78 1 6 9 12 19 12 15 0 15 2 2 11 -11 7 -12 12 -3 15 7 3 10 11
7 18 -3 8 2 20 10 28 11 11 12 18 3 27 -8 8 -4 11 17 11 15 0 25 4 21 9 -3 5
3 17 12 27 17 17 17 18 1 11 -21 -7 -24 8 -5 20 17 10 29 53 16 53 -5 0 -14
-10 -19 -22 -5 -14 -9 -17 -9 -8 -1 9 4 21 11 28 15 15 19 82 5 82 -5 0 -6 11
-3 24 3 14 2 27 -4 31 -6 4 -5 15 2 30 13 28 4 45 -14 27 -6 -6 -24 -8 -40 -5
-25 5 -29 3 -26 -13 2 -12 -3 -19 -12 -19 -8 0 -15 7 -15 15 0 9 -9 15 -22 15
-12 0 -25 4 -29 8 -4 4 0 7 8 7 17 0 28 28 28 71 0 14 3 29 8 33 7 8 9 14 11
47 1 13 12 24 31 30 17 6 30 15 30 19 0 5 14 11 30 15 17 4 30 13 30 20 0 8 7
11 20 8 14 -4 20 0 20 10 0 9 10 19 22 23 31 10 98 77 99 100 0 18 1 18 9 -1
6 -13 9 -15 9 -5 2 32 49 130 72 149 19 16 21 23 11 29 -11 8 -11 10 2 15 9 4
16 15 16 26 0 11 4 22 10 26 5 3 7 12 4 19 -3 7 1 16 9 19 8 3 15 18 15 33 0
16 8 35 20 45 l21 16 -22 12 c-12 6 -15 10 -5 7 9 -3 24 4 34 15 15 17 16 24
6 39 -15 25 -15 30 2 30 14 0 26 21 26 46 0 8 -9 14 -20 14 -11 0 -20 5 -20
11 0 6 8 8 19 4 15 -4 18 0 17 25 -1 19 -5 28 -13 26 -8 -3 -10 1 -6 11 5 12
2 15 -13 11 -17 -4 -20 0 -19 26 0 17 -3 36 -8 42 -4 7 -1 18 8 27 8 9 12 23
9 31 -4 11 0 16 11 16 11 0 15 5 12 15 -4 8 -2 17 4 20 5 4 7 11 3 16 -8 14
17 41 33 35 8 -4 18 5 26 22 6 15 22 35 34 45 13 10 23 29 23 41 0 14 10 28
25 36 27 15 27 14 30 82 1 33 -3 49 -13 53 -12 4 -12 9 2 30 9 14 12 25 7 25
-9 0 -1 46 14 83 4 9 3 17 -3 17 -6 0 -12 -6 -15 -12 -2 -7 -8 -9 -13 -5 -4 4
-4 16 2 25 5 9 9 45 8 80 -2 41 2 62 9 63 7 1 -1 5 -18 9 -24 6 -26 8 -7 9 24
1 30 16 10 24 -7 3 -3 6 10 6 12 1 22 5 22 10 0 21 -13 41 -26 41 -12 0 -12 5
1 30 17 33 20 54 5 45 -17 -11 -11 7 7 20 15 11 15 15 4 29 -12 14 -12 16 0
11 13 -5 55 50 51 68 -1 4 2 7 8 7 5 0 10 7 10 15 0 8 14 30 31 48 55 57 70
82 56 96 -9 10 -8 11 7 5 13 -5 17 -4 12 4 -3 6 -2 14 4 17 8 5 7 11 -1 21 -9
11 -9 14 1 14 8 0 10 8 7 22 -4 12 -1 28 5 35 8 10 4 15 -13 22 -22 9 -22 10
-3 10 31 1 35 11 13 34 -23 25 -25 39 -4 31 9 -4 15 -1 15 7 0 8 3 25 7 39 6
23 5 24 -11 11 -9 -8 -20 -11 -24 -7 -4 4 4 17 18 28 26 21 34 44 18 54 -6 4
-5 9 3 15 10 6 10 13 1 34 -7 14 -12 37 -12 50 0 31 -20 33 -21 3 -1 -20 -2
-20 -6 -4 -3 10 -13 28 -23 38 -14 15 -16 26 -10 49 6 20 5 29 -3 29 -6 0 -3
6 8 13 11 9 15 19 10 27 -4 7 -2 16 6 21 12 7 11 11 -3 25 -16 16 -18 16 -24
1 -7 -19 -24 -13 -24 9 0 8 7 14 15 14 8 0 15 5 15 10 0 6 -9 10 -19 10 -16 0
-19 7 -18 37 2 32 -1 38 -18 38 -14 0 -19 6 -18 20 2 11 1 30 -2 42 -6 26 -44
41 -56 22 -6 -10 -9 -8 -9 8 0 12 7 26 16 31 11 6 13 11 5 16 -6 4 -11 3 -11
-2 0 -6 -6 -12 -14 -15 -11 -5 -13 0 -6 23 9 32 5 40 -22 40 -12 0 -16 4 -12
12 5 7 2 9 -9 5 -12 -4 -14 -2 -10 10 5 13 2 15 -16 10 -22 -5 -22 -5 -5 14
16 18 16 19 -10 19 -16 0 -25 4 -21 10 9 14 -18 12 -35 -2 -9 -8 -7 -3 3 14
10 16 13 29 7 33 -6 3 -10 17 -10 30 0 18 -7 25 -30 30 -16 4 -35 3 -41 -1 -9
-5 -10 0 -5 19 7 29 -30 107 -51 107 -7 0 -13 5 -13 10 0 6 -7 10 -15 10 -8 0
-15 5 -15 11 0 5 5 7 12 3 8 -5 9 0 5 17 -4 13 -7 31 -7 39 -1 8 -6 4 -13 -10
l-11 -25 -4 29 c-3 25 -7 28 -32 24 -26 -4 -28 -2 -18 15 8 16 5 24 -16 42
-31 27 -33 41 -5 48 17 5 18 3 8 -9 -6 -8 -9 -17 -5 -21 10 -10 17 2 19 33 2
24 -1 29 -20 26 -31 -4 -38 16 -8 24 24 6 24 7 8 20 -12 9 -13 13 -5 14 7 0
10 5 7 10 -4 6 -15 8 -26 5 -13 -4 -21 -1 -25 10 -6 13 -9 14 -16 3 -8 -10 -9
-10 -6 2 6 20 101 75 174 100 96 33 190 48 300 49 90 1 106 -2 150 -25z m-306
-604 c0 -5 -2 -10 -4 -10 -3 0 -8 5 -11 10 -3 6 -1 10 4 10 6 0 11 -4 11 -10z
m5 -40 c3 -5 1 -10 -4 -10 -6 0 -11 5 -11 10 0 6 2 10 4 10 3 0 8 -4 11 -10z
m-6605 -927 c25 -9 57 -24 71 -34 14 -10 45 -25 70 -35 101 -40 209 -129 300
-250 134 -177 248 -605 268 -1006 l7 -146 36 -54 c45 -66 87 -167 133 -323 47
-157 67 -210 112 -297 20 -40 37 -75 38 -78 0 -3 9 -14 21 -26 18 -18 28 -20
72 -14 54 7 82 -2 82 -25 0 -8 5 -15 10 -15 6 0 10 5 10 11 0 6 16 -6 35 -25
19 -20 35 -41 35 -46 0 -6 7 -13 15 -16 8 -4 15 -10 15 -16 0 -5 -4 -7 -9 -4
-4 3 -6 -6 -3 -20 3 -19 7 -22 13 -12 7 10 9 10 9 -3 0 -8 -5 -20 -11 -26 -8
-8 -5 -13 11 -18 20 -6 21 -7 3 -21 -16 -12 -16 -13 -2 -14 25 0 29 -36 7 -60
-11 -11 -17 -28 -14 -35 3 -10 -3 -17 -18 -21 -17 -4 -22 -11 -19 -25 6 -22
19 -25 26 -6 2 6 6 0 9 -14 4 -25 3 -26 -26 -23 l-31 3 28 -10 c15 -6 27 -15
27 -21 0 -7 5 -6 14 1 10 8 16 9 21 1 3 -5 0 -10 -7 -10 -7 0 -19 -9 -26 -20
-7 -12 -16 -19 -20 -16 -5 3 -14 1 -22 -5 -12 -7 -9 -9 9 -9 23 0 23 -1 7 -18
-15 -17 -15 -22 -1 -57 9 -20 14 -40 11 -43 -3 -3 -1 -11 5 -19 8 -8 8 -13 1
-13 -6 0 -13 -18 -17 -40 -6 -35 -10 -40 -33 -40 -21 0 -24 -2 -12 -10 9 -6
10 -10 3 -10 -6 0 -15 4 -18 10 -3 5 -23 8 -44 7 -22 -1 -37 -5 -34 -9 2 -5
-3 -8 -11 -8 -8 0 -18 5 -21 10 -9 14 -42 12 -49 -2 -4 -7 -5 -4 -2 8 3 18 -1
20 -28 19 -17 -2 -36 2 -43 7 -7 5 -17 7 -23 3 -5 -3 -10 -1 -10 4 0 6 -4 11
-10 11 -5 0 -7 -7 -3 -16 4 -10 -2 -17 -16 -21 -15 -4 -20 -11 -16 -21 5 -13
3 -13 -11 -1 -10 8 -12 15 -5 17 16 5 13 22 -4 22 -8 0 -15 9 -15 20 0 12 -6
20 -12 19 -13 -2 -42 6 -68 20 -8 5 -14 18 -12 30 4 23 -12 28 -25 9 -9 -15
-74 -40 -82 -33 -2 3 4 12 15 19 10 8 16 18 12 22 -5 4 -16 0 -26 -9 -10 -10
-22 -14 -25 -10 -11 11 -8 31 6 36 6 2 2 3 -10 1 -16 -3 -20 0 -16 15 3 10 0
22 -6 25 -6 4 -11 16 -11 27 0 18 1 18 20 -1 12 -12 26 -18 32 -14 7 4 4 10
-7 17 -11 6 -13 12 -7 16 6 3 14 19 18 35 6 26 5 27 -15 17 -27 -15 -29 3 -3
27 9 10 13 14 8 10 -6 -5 -19 -8 -31 -8 -18 1 -18 1 -2 11 24 14 21 33 -7 64
-14 15 -22 33 -19 42 5 12 1 14 -15 8 -16 -5 -22 -2 -22 10 0 9 5 13 10 10 6
-3 10 1 10 9 0 10 6 13 15 10 10 -4 15 0 15 11 0 11 -5 15 -15 11 -8 -3 -15
-1 -15 4 0 6 7 10 15 10 18 0 20 16 3 23 -7 3 -2 6 12 6 18 1 21 4 12 10 -8 4
-13 12 -12 17 1 4 -16 15 -38 23 -37 15 -39 18 -37 59 1 23 -2 42 -7 42 -4 0
-8 8 -8 18 0 11 -11 24 -25 30 -24 11 -36 0 -15 -13 5 -3 14 -14 19 -24 7 -13
6 -18 -5 -18 -7 0 -14 6 -14 14 0 7 -4 13 -10 13 -5 0 -10 -5 -10 -11 0 -5 -4
-8 -10 -4 -5 3 -7 13 -4 23 5 14 4 15 -5 2 -12 -18 -14 -15 -28 33 -8 28 -8
37 0 37 7 0 12 13 13 30 1 16 -2 27 -7 25 -4 -3 -16 8 -25 25 -10 16 -22 30
-26 30 -12 0 -4 43 12 62 8 10 20 18 27 18 9 0 11 8 7 25 -3 14 -2 24 2 23 5
-2 19 7 31 19 16 16 18 24 10 32 -9 9 -8 14 3 21 12 8 9 10 -12 10 -16 0 -28
5 -28 10 0 6 5 10 11 10 7 0 9 11 6 29 -3 15 -1 33 5 39 8 8 8 15 -1 26 -10
12 -9 16 5 24 17 9 17 11 0 27 -13 13 -20 15 -29 6 -6 -6 -16 -11 -22 -11 -5
0 -3 4 5 10 12 7 12 12 -4 29 -10 11 -15 24 -11 30 3 6 -6 27 -21 46 l-26 35
23 1 24 1 -25 7 c-14 4 -25 13 -25 21 0 8 -7 20 -15 27 -8 7 -11 13 -7 13 4 0
3 9 -3 20 -6 11 -15 18 -21 15 -5 -4 -6 -12 -3 -18 4 -7 3 -9 -1 -4 -15 13
-13 51 2 69 9 10 11 18 4 22 -5 4 -9 20 -9 37 1 35 -32 68 -67 69 -20 1 -20 1
-1 15 18 14 18 15 -10 25 -22 9 -25 13 -14 20 12 7 12 12 2 22 -6 6 -12 20
-12 30 0 10 -7 18 -16 18 -8 0 -13 4 -10 9 3 5 -1 22 -9 37 -9 18 -11 30 -5
32 6 2 8 8 5 12 -3 5 -11 7 -19 4 -7 -3 -13 2 -13 13 1 54 -4 84 -12 78 -5 -3
-12 -1 -16 5 -3 5 0 10 7 10 8 1 6 6 -6 15 -18 14 -18 15 -2 15 16 0 16 1 2
16 -9 8 -16 24 -16 35 0 11 -7 19 -16 19 -10 0 -14 6 -10 15 3 8 -2 18 -11 23
-9 6 -12 12 -5 16 11 7 -7 56 -20 56 -5 0 -8 5 -8 11 0 5 4 8 9 4 5 -3 12 -1
16 5 3 6 -4 10 -16 10 -12 0 -19 3 -16 6 3 4 2 15 -3 24 -7 13 -6 20 5 24 9 3
12 12 9 21 -4 9 -13 14 -20 11 -9 -3 -14 2 -14 14 0 11 -6 20 -13 20 -7 0 -14
12 -15 27 -1 15 -9 31 -17 36 -8 4 -15 14 -15 22 0 8 -8 19 -17 24 -13 8 -14
10 -4 11 11 0 9 4 -5 15 -12 9 -14 14 -6 15 21 0 6 16 -33 34 -30 15 -34 20
-29 45 5 23 2 29 -18 35 -17 4 -20 8 -10 15 11 7 11 9 -2 14 -9 4 -13 13 -10
22 4 9 1 15 -9 15 -13 0 -33 43 -29 63 1 4 -8 7 -20 7 -19 0 -20 2 -8 10 12 7
8 11 -17 16 -22 4 -33 13 -34 25 -1 11 -2 25 -3 32 -1 6 5 11 12 10 6 -2 12 2
12 7 0 6 -7 10 -15 10 -8 0 -15 5 -15 10 0 6 -8 10 -17 10 -14 0 -11 6 12 26
88 76 224 104 325 67z m4607 -1249 c-3 -3 -12 -4 -19 -1 -8 3 -5 6 6 6 11 1
17 -2 13 -5z m1912 -95 c-8 -5 -23 -8 -34 -8 -14 0 -16 2 -5 6 8 4 21 13 29
21 12 11 16 12 19 2 3 -7 -2 -16 -9 -21z m-65 -34 c-4 -8 -11 -12 -16 -9 -6 4
-5 10 3 15 19 12 19 11 13 -6z m62 -4 c-3 -5 -15 -7 -26 -4 -28 7 -25 13 6 13
14 0 23 -4 20 -9z m-3656 -31 c0 -5 -10 -10 -22 -10 -19 0 -20 2 -8 10 19 13
30 13 30 0z m-3 -69 c-1 -17 -5 -27 -9 -23 -7 7 0 52 8 52 2 0 2 -13 1 -29z
m135 -36 c0 -5 -5 -11 -11 -13 -6 -2 -11 4 -11 13 0 9 5 15 11 13 6 -2 11 -8
11 -13z m-14 -32 c-10 -2 -26 -2 -35 0 -10 3 -2 5 17 5 19 0 27 -2 18 -5z m75
-7 c4 -10 1 -13 -9 -9 -15 6 -19 23 -5 23 5 0 11 -7 14 -14z m46 -62 c-15 -18
-22 -13 -13 10 3 9 10 13 16 10 5 -3 4 -12 -3 -20z m861 -148 c0 -3 -4 -8 -10
-11 -5 -3 -10 -1 -10 4 0 6 5 11 10 11 6 0 10 -2 10 -4z m-753 -78 c-3 -8 -6
-5 -6 6 -1 11 2 17 5 13 3 -3 4 -12 1 -19z m603 6 c0 -8 -4 -12 -10 -9 -5 3
-10 10 -10 16 0 5 5 9 10 9 6 0 10 -7 10 -16z m20 -28 c0 -3 -4 -8 -10 -11 -5
-3 -10 -1 -10 4 0 6 5 11 10 11 6 0 10 -2 10 -4z m30 -26 c0 -14 -33 -21 -44
-9 -8 9 -8 10 2 5 7 -4 15 -1 18 8 6 16 24 13 24 -4z m-650 1 c0 -6 -4 -13
-10 -16 -5 -3 -10 1 -10 9 0 9 5 16 10 16 6 0 10 -4 10 -9z m575 -11 c-3 -5
-14 -10 -23 -10 -15 0 -15 2 -2 10 20 13 33 13 25 0z m145 -14 c0 -2 -11 -6
-25 -8 -13 -3 -22 -1 -19 3 5 9 44 13 44 5z m-677 -19 c3 -8 -7 -11 -32 -10
-45 2 -43 2 -38 11 8 12 65 12 70 -1z m-43 -77 c0 -5 -4 -10 -10 -10 -5 0 -10
5 -10 10 0 6 5 10 10 10 6 0 10 -4 10 -10z m26 -96 c-3 -8 -10 -13 -16 -9 -6
4 -5 13 3 26 13 21 23 8 13 -17z m21 -6 c-3 -7 -5 -2 -5 12 0 14 2 19 5 13 2
-7 2 -19 0 -25z m1044 -5 c-12 -20 -14 -14 -5 12 4 9 9 14 11 11 3 -2 0 -13
-6 -23z m-3951 -3 c0 -5 -4 -10 -10 -10 -5 0 -10 5 -10 10 0 6 5 10 10 10 6 0
10 -4 10 -10z m4849 -32 c-5 -10 -13 -18 -17 -18 -4 0 -8 8 -8 18 0 10 8 18
17 18 14 0 15 -4 8 -18z m-1894 -18 c3 -5 1 -10 -4 -10 -6 0 -11 5 -11 10 0 6
2 10 4 10 3 0 8 -4 11 -10z m1255 -20 c0 -5 -2 -10 -4 -10 -3 0 -8 5 -11 10
-3 6 -1 10 4 10 6 0 11 -4 11 -10z m810 -90 c0 -5 -2 -10 -4 -10 -3 0 -8 5
-11 10 -3 6 -1 10 4 10 6 0 11 -4 11 -10z m-355 -10 c3 -5 1 -10 -4 -10 -6 0
-11 5 -11 10 0 6 2 10 4 10 3 0 8 -4 11 -10z m1023 -71 c-18 -12 -28 -11 -28
1 0 6 7 10 15 10 8 0 16 10 16 23 2 21 2 21 6 -2 3 -13 -1 -27 -9 -32z m-5548
21 c0 -5 -5 -10 -11 -10 -5 0 -7 5 -4 10 3 6 8 10 11 10 2 0 4 -4 4 -10z
m4860 6 c0 -3 -4 -8 -10 -11 -5 -3 -10 -1 -10 4 0 6 5 11 10 11 6 0 10 -2 10
-4z m458 -35 c12 -15 13 -15 9 0 -4 12 1 15 20 13 29 -3 30 -4 35 -28 1 -10
-3 -21 -11 -24 -10 -3 -12 1 -8 17 5 21 -7 29 -17 12 -10 -16 5 -41 25 -41 10
0 19 -4 19 -10 0 -5 -9 -10 -20 -10 -25 0 -26 -18 -2 -36 16 -13 16 -14 -5
-20 -11 -3 -24 -15 -26 -26 -4 -12 -10 -17 -17 -13 -9 6 -9 2 -1 -13 14 -26
14 -35 1 -27 -15 9 -32 -45 -26 -85 3 -19 3 -29 0 -22 -9 20 -27 14 -21 -8 3
-13 -3 -26 -17 -38 -12 -9 -25 -25 -29 -34 -3 -10 -11 -18 -18 -18 -6 0 -9 -7
-5 -15 3 -10 -5 -20 -24 -30 -17 -9 -30 -21 -30 -29 0 -7 -7 -13 -15 -13 -11
0 -12 4 -5 11 5 5 10 15 10 20 -1 22 -30 -29 -31 -53 0 -14 -3 -20 -6 -13 -9
22 -25 13 -17 -10 3 -13 3 -20 -1 -16 -10 10 -37 -11 -29 -23 3 -5 0 -10 -5
-10 -12 -2 -26 -5 -38 -9 -5 -1 -12 -2 -18 0 -5 1 -1 -8 10 -20 l19 -21 -28 7
c-25 6 -27 4 -22 -13 8 -24 -16 -48 -39 -39 -8 3 -15 1 -15 -5 0 -6 -5 -7 -10
-4 -6 4 -8 11 -4 16 3 5 0 17 -7 25 -10 12 -9 13 5 8 14 -5 17 -2 14 17 -2 20
1 23 20 21 12 -2 22 2 22 7 0 6 -6 11 -14 11 -14 0 -30 29 -21 38 3 3 5 -1 5
-9 0 -8 7 -4 16 10 11 16 13 25 6 30 -13 8 -11 28 7 59 7 13 10 30 7 38 -3 8
0 14 6 14 9 0 9 3 0 12 -7 7 -12 19 -11 27 0 11 2 12 6 4 5 -14 25 -18 21 -5
-1 4 4 17 11 30 7 13 10 30 7 38 -3 8 -1 25 4 39 10 28 8 30 -20 15 -17 -9
-17 -7 2 32 18 38 19 43 4 53 -20 15 -21 25 -1 25 8 0 15 -7 15 -15 0 -8 5
-15 11 -15 19 0 5 35 -19 45 -25 11 -29 25 -7 25 9 0 15 9 15 24 0 14 5 28 11
32 7 4 10 -4 9 -22 -3 -44 -1 -54 11 -54 6 0 8 8 4 19 -6 20 3 51 15 51 5 0
11 -10 13 -22 4 -19 5 -18 6 6 1 26 4 28 32 24 25 -4 33 -1 37 14 2 10 14 19
26 20 11 0 28 1 36 2 8 1 16 9 18 19 3 15 10 16 40 11 20 -4 43 -14 50 -23z
m-448 -1 c0 -5 -4 -10 -9 -10 -6 0 -13 5 -16 10 -3 6 1 10 9 10 9 0 16 -4 16
-10z m47 -62 c-3 -8 -6 -5 -6 6 -1 11 2 17 5 13 3 -3 4 -12 1 -19z m-31 -25
c-10 -10 -19 5 -10 18 6 11 8 11 12 0 2 -7 1 -15 -2 -18z m-2035 -56 c-6 -8
-8 -17 -4 -21 4 -4 0 -4 -10 0 -14 5 -15 9 -6 20 6 8 16 14 21 14 7 0 6 -5 -1
-13z m2519 -17 c0 -5 -5 -10 -11 -10 -5 0 -7 5 -4 10 3 6 8 10 11 10 2 0 4 -4
4 -10z m-5260 -74 c0 -3 -4 -8 -10 -11 -5 -3 -10 -1 -10 4 0 6 5 11 10 11 6 0
10 -2 10 -4z m5240 -6 c0 -5 -4 -10 -9 -10 -6 0 -13 5 -16 10 -3 6 1 10 9 10
9 0 16 -4 16 -10z m60 -20 c0 -5 -2 -10 -4 -10 -3 0 -8 5 -11 10 -3 6 -1 10 4
10 6 0 11 -4 11 -10z m80 -11 c0 -6 -4 -7 -10 -4 -5 3 -10 1 -10 -6 0 -7 -3
-10 -6 -6 -10 10 5 39 16 32 5 -3 10 -11 10 -16z m-4622 -1 c15 -15 16 -28 2
-28 -5 0 -10 6 -10 14 0 8 -6 17 -12 19 -7 3 -8 6 -2 6 5 1 15 -4 22 -11z
m4583 -33 c5 4 9 2 9 -4 0 -5 -5 -13 -10 -16 -6 -4 -8 -11 -5 -16 3 -5 0 -7
-7 -4 -7 3 -14 20 -15 38 -2 26 0 29 8 14 6 -9 14 -15 20 -12z m-461 11 c0 -3
-4 -8 -10 -11 -5 -3 -10 -1 -10 4 0 6 5 11 10 11 6 0 10 -2 10 -4z m416 -30
c-3 -14 -1 -28 4 -31 6 -4 7 -11 4 -17 -4 -6 -9 -5 -15 3 -4 7 -11 10 -14 7
-4 -4 0 -17 9 -30 9 -12 16 -27 16 -32 0 -6 -7 0 -16 12 -8 12 -20 20 -25 16
-7 -4 -5 -12 4 -22 20 -24 28 -50 16 -57 -5 -4 -7 -11 -4 -16 4 -5 -11 -24
-31 -43 -34 -31 -53 -76 -32 -76 16 0 8 -20 -9 -21 -12 0 -13 -2 -5 -6 9 -3 4
-14 -17 -33 -16 -16 -31 -37 -33 -47 -2 -10 -10 -17 -16 -15 -7 1 -12 -9 -12
-23 0 -16 -6 -25 -15 -25 -9 0 -18 -7 -22 -16 -3 -10 -15 -14 -32 -11 -14 2
-20 2 -13 0 20 -7 13 -22 -8 -16 -14 4 -20 0 -20 -11 0 -9 5 -16 11 -16 5 0 7
-5 4 -10 -5 -8 -11 -7 -21 1 -16 13 -19 39 -5 39 5 0 7 9 4 20 -4 14 0 20 11
20 15 0 21 22 17 58 -1 6 7 12 19 12 12 0 20 7 20 17 0 34 24 83 41 83 9 0 20
7 23 16 3 8 2 12 -4 9 -16 -10 -12 7 7 27 9 11 11 18 5 18 -7 0 -12 7 -12 15
0 8 9 15 20 15 11 0 21 6 21 13 2 24 5 32 19 60 7 15 19 27 26 27 8 0 11 6 8
15 -4 8 -1 15 5 15 7 0 15 8 18 18 6 15 42 58 52 61 2 1 0 -10 -3 -23z m-411
-6 c-3 -5 -11 -10 -16 -10 -6 0 -7 5 -4 10 3 6 11 10 16 10 6 0 7 -4 4 -10z
m-3869 -25 c-5 -18 -2 -25 9 -25 8 0 15 -4 15 -10 0 -13 -17 -13 -24 -1 -4 5
-17 8 -31 6 -16 -1 -25 3 -25 12 0 10 6 12 20 8 16 -5 20 -2 20 14 0 12 5 21
11 21 7 0 9 -10 5 -25z m102 -34 c3 -8 -1 -12 -9 -9 -7 2 -15 10 -17 17 -3 8
1 12 9 9 7 -2 15 -10 17 -17z m222 9 c0 -5 -7 -10 -15 -10 -8 0 -15 5 -15 10
0 6 7 10 15 10 8 0 15 -4 15 -10z m-1300 -109 c0 -2 -7 2 -15 9 -8 7 -15 27
-15 44 1 31 1 31 15 -9 8 -22 15 -42 15 -44z m5210 -81 c-8 -5 -19 -10 -25
-10 -5 0 -3 5 5 10 8 5 20 10 25 10 6 0 3 -5 -5 -10z m-440 -149 c0 -5 -7 -12
-16 -15 -14 -5 -15 -4 -4 9 14 17 20 19 20 6z m270 -121 c0 -5 -4 -10 -10 -10
-5 0 -10 5 -10 10 0 6 5 10 10 10 6 0 10 -4 10 -10z m-110 -55 c0 -12 -19 -12
-23 0 -4 9 -1 12 9 8 7 -3 14 -7 14 -8z m30 -35 c0 -5 -2 -10 -4 -10 -3 0 -8
5 -11 10 -3 6 -1 10 4 10 6 0 11 -4 11 -10z m-3120 -110 c0 -5 -4 -10 -10 -10
-5 0 -10 5 -10 10 0 6 5 10 10 10 6 0 10 -4 10 -10z m1000 -1060 c0 -5 -4 -10
-10 -10 -5 0 -10 5 -10 10 0 6 5 10 10 10 6 0 10 -4 10 -10z m-1097 -375 c15
-22 16 -25 2 -25 -8 0 -15 7 -15 15 0 10 -10 15 -31 15 -17 0 -28 4 -24 10 11
18 50 10 68 -15z m67 9 c0 -8 -5 -12 -10 -9 -6 4 -8 11 -5 16 9 14 15 11 15
-7z m-97 -38 c17 -18 26 -21 39 -13 23 15 34 2 17 -19 -13 -15 -11 -17 19 -12
35 5 34 6 20 -42 -3 -8 -3 -12 -1 -7 8 14 23 7 23 -11 0 -9 -12 -25 -27 -35
-26 -17 -26 -18 -4 -11 21 6 23 4 17 -19 -4 -17 -1 -31 10 -41 14 -14 14 -16
0 -16 -10 0 -13 -6 -9 -17 4 -10 2 -14 -4 -10 -5 4 -15 -5 -21 -18 -9 -20 -9
-23 3 -18 20 7 19 -4 -1 -24 -11 -11 -12 -19 -5 -26 18 -18 12 -29 -10 -22
-19 6 -21 4 -16 -17 5 -18 -2 -33 -28 -63 -19 -21 -35 -42 -35 -46 0 -4 -9 -9
-21 -12 -12 -3 -18 -10 -14 -17 8 -13 -13 -80 -26 -80 -5 0 -9 -4 -9 -10 0 -5
7 -10 16 -10 8 0 12 -5 9 -10 -4 -6 -11 -8 -16 -5 -5 3 -6 -1 -2 -11 5 -13 2
-15 -15 -9 -22 6 -31 -8 -12 -20 15 -9 -1 -37 -20 -32 -13 3 -16 -1 -12 -19 2
-13 -2 -32 -9 -41 -10 -12 -10 -14 -1 -9 6 4 12 3 12 -3 0 -5 -5 -13 -11 -17
-6 -3 -9 -24 -7 -45 4 -41 -10 -50 -42 -28 -12 8 -10 9 8 4 14 -4 22 -2 22 5
0 7 -9 14 -20 17 -11 3 -18 9 -15 13 3 5 1 11 -5 15 -18 11 0 26 23 20 18 -5
19 -4 5 5 -28 17 -51 1 -44 -31 5 -26 3 -29 -22 -28 -15 0 -36 4 -47 9 -16 7
-14 9 15 10 31 1 33 2 17 14 -10 8 -15 20 -11 30 3 9 1 16 -5 16 -6 0 -11 -4
-11 -10 0 -5 -7 -10 -15 -10 -8 0 -13 6 -11 13 17 53 16 67 -4 67 -11 0 -20 4
-20 10 0 5 7 7 15 4 22 -9 18 9 -5 26 -24 17 -26 30 -5 30 8 0 15 -5 15 -12 0
-6 2 -9 5 -6 3 3 3 12 -1 21 -5 13 -10 14 -26 6 -15 -8 -23 -8 -32 1 -8 9 -7
11 4 8 11 -2 16 7 18 35 3 32 0 37 -17 37 -21 0 -27 11 -14 24 4 4 8 13 9 19
0 7 2 20 2 30 1 9 9 17 17 17 21 0 19 18 -2 23 -12 3 -8 5 9 6 29 1 50 21 23
21 -9 0 -13 5 -9 11 3 6 0 15 -7 20 -7 4 -10 12 -5 16 5 4 11 2 13 -4 7 -20
23 -15 23 7 0 11 6 20 14 20 16 0 18 37 4 57 -5 7 -5 14 2 18 8 5 8 11 -1 21
-7 9 -8 14 -1 14 6 0 12 12 14 28 2 19 9 27 23 27 15 0 21 8 23 33 2 21 9 32
19 32 9 0 13 -6 9 -15 -3 -8 -1 -15 4 -15 6 0 11 15 11 33 1 17 3 24 6 15 7
-28 26 -21 20 8 -3 18 -1 22 6 15 16 -16 27 -13 20 6 -4 11 -3 14 5 9 7 -4 12
-1 12 9 0 11 5 15 15 11 17 -6 20 5 5 20 -6 6 -2 10 12 11 13 1 24 7 26 13 6
17 32 11 55 -14z m107 -3 c0 -11 -3 -14 -8 -7 -4 6 -14 14 -22 17 -10 4 -8 6
8 6 15 1 22 -5 22 -16z m-233 -25 c-3 -8 -6 -5 -6 6 -1 11 2 17 5 13 3 -3 4
-12 1 -19z m1479 -75 c-11 -11 -17 4 -9 23 7 18 8 18 11 1 2 -10 1 -21 -2 -24z
m-1216 -73 c0 -5 -4 -10 -10 -10 -5 0 -10 5 -10 10 0 6 5 10 10 10 6 0 10 -4
10 -10z m-433 -126 c-3 -3 -12 -4 -19 -1 -8 3 -5 6 6 6 11 1 17 -2 13 -5z
m333 -181 c0 -10 -4 -14 -8 -8 -4 6 -11 13 -16 18 -5 4 -2 7 7 7 10 0 17 -8
17 -17z m-51 -40 c0 -5 -4 -17 -9 -28 -8 -18 -9 -17 -9 8 -1 15 4 27 9 27 6 0
10 -3 9 -7z m-79 -203 c0 -5 -2 -10 -4 -10 -3 0 -8 5 -11 10 -3 6 -1 10 4 10
6 0 11 -4 11 -10z m-150 -150 c0 -5 -2 -10 -4 -10 -3 0 -8 5 -11 10 -3 6 -1
10 4 10 6 0 11 -4 11 -10z m1891 -63 c-10 -9 -11 -8 -5 6 3 10 9 15 12 12 3
-3 0 -11 -7 -18z m-2401 -1 c0 -2 -7 -6 -15 -10 -8 -3 -15 -1 -15 4 0 6 7 10
15 10 8 0 15 -2 15 -4z m35 -56 c3 -5 2 -10 -4 -10 -5 0 -13 5 -16 10 -3 6 -2
10 4 10 5 0 13 -4 16 -10z m12 -42 c-3 -8 -6 -5 -6 6 -1 11 2 17 5 13 3 -3 4
-12 1 -19z m-63 -15 c-10 -40 -14 -41 -14 -5 0 18 5 32 10 32 6 0 8 -11 4 -27z
m31 -13 c0 -27 -2 -35 -8 -24 -7 13 -2 64 6 64 1 0 2 -18 2 -40z m39 -24 c-3
-15 -8 -25 -11 -23 -2 3 -1 17 3 31 3 15 8 25 11 23 2 -3 1 -17 -3 -31z m-88
-50 c-6 -26 7 -36 50 -36 21 0 23 -2 12 -19 -11 -18 -13 -18 -23 -4 -7 9 -17
13 -23 9 -15 -9 -37 37 -29 58 10 25 20 19 13 -8z m52 6 c2 -7 -3 -12 -12 -12
-9 0 -16 7 -16 16 0 17 22 14 28 -4z m-74 -54 c-10 -16 -19 -7 -20 18 -2 23
-1 24 11 7 7 -10 11 -21 9 -25z m41 -28 c3 -5 1 -10 -4 -10 -6 0 -11 5 -11 10
0 6 2 10 4 10 3 0 8 -4 11 -10z m2615 -640 c13 -8 13 -10 -2 -10 -9 0 -20 5
-23 10 -8 13 5 13 25 0z m-10 -30 c0 -5 -7 -10 -15 -10 -8 0 -15 5 -15 10 0 6
7 10 15 10 8 0 15 -4 15 -10z m150 -59 c0 -5 -7 -11 -14 -14 -10 -4 -13 -1 -9
9 6 15 23 19 23 5z m187 -57 c-3 -3 -12 -4 -19 -1 -8 3 -5 6 6 6 11 1 17 -2
13 -5z m-297 -184 c0 -4 -7 -13 -15 -20 -9 -7 -13 -15 -11 -18 6 -6 -19 -32
-31 -32 -16 0 -8 51 9 64 19 14 48 17 48 6z m-100 -95 c0 -14 -4 -25 -10 -25
-5 0 -10 11 -10 25 0 14 5 25 10 25 6 0 10 -11 10 -25z m-143 -77 c-3 -8 -6
-5 -6 6 -1 11 2 17 5 13 3 -3 4 -12 1 -19z m-3317 -38 c0 -5 -4 -10 -10 -10
-5 0 -10 5 -10 10 0 6 5 10 10 10 6 0 10 -4 10 -10z m3346 -47 c-11 -11 -19 6
-11 24 8 17 8 17 12 0 3 -10 2 -21 -1 -24z m-3276 -93 c0 -5 -4 -10 -10 -10
-5 0 -10 5 -10 10 0 6 5 10 10 10 6 0 10 -4 10 -10z m3637 -132 c-3 -8 -6 -5
-6 6 -1 11 2 17 5 13 3 -3 4 -12 1 -19z m-10 -350 c-3 -7 -5 -2 -5 12 0 14 2
19 5 13 2 -7 2 -19 0 -25z m-3400 -373 c7 0 7 -7 -1 -44 -1 -8 -8 -17 -14 -19
-8 -2 -10 6 -5 29 5 27 4 31 -10 26 -13 -5 -17 -1 -17 17 0 33 12 40 26 14 7
-13 16 -23 21 -23z m3628 5 c3 -5 1 -10 -4 -10 -6 0 -11 5 -11 10 0 6 2 10 4
10 3 0 8 -4 11 -10z m-3725 -61 c0 -11 -4 -17 -10 -14 -5 3 -10 -3 -10 -15 0
-12 -4 -18 -10 -15 -16 10 -12 45 5 45 8 0 15 5 15 10 0 6 2 10 5 10 3 0 5 -9
5 -21z m80 -79 c0 -5 -2 -10 -4 -10 -3 0 -8 5 -11 10 -3 6 -1 10 4 10 6 0 11
-4 11 -10z m4927 -272 c-3 -7 -5 -2 -5 12 0 14 2 19 5 13 2 -7 2 -19 0 -25z
m317 -309 c-3 -5 -10 -7 -15 -3 -5 3 -7 10 -3 15 3 5 10 7 15 3 5 -3 7 -10 3
-15z m-34 -9 c0 -5 -7 -10 -15 -10 -8 0 -15 5 -15 10 0 6 7 10 15 10 8 0 15
-4 15 -10z m-2810 -600 c0 -5 -4 -10 -10 -10 -5 0 -10 5 -10 10 0 6 5 10 10
10 6 0 10 -4 10 -10z m-120 -500 c0 -5 -2 -10 -4 -10 -3 0 -8 5 -11 10 -3 6
-1 10 4 10 6 0 11 -4 11 -10z m90 -414 c0 -3 -4 -8 -10 -11 -5 -3 -10 -1 -10
4 0 6 5 11 10 11 6 0 10 -2 10 -4z m60 -146 c0 -5 -2 -10 -4 -10 -3 0 -8 5
-11 10 -3 6 -1 10 4 10 6 0 11 -4 11 -10z m-1400 -750 c0 -5 -2 -10 -4 -10 -3
0 -8 5 -11 10 -3 6 -1 10 4 10 6 0 11 -4 11 -10z m-3280 -255 c0 -8 8 -15 18
-15 10 0 24 -6 31 -12 11 -11 13 -10 8 5 -4 9 -2 17 3 17 6 0 10 -7 10 -15 0
-8 7 -15 16 -15 10 0 14 6 10 15 -10 27 18 16 63 -24 24 -21 48 -38 55 -38 41
1 66 -4 61 -13 -5 -9 23 -15 48 -11 4 1 10 -5 13 -13 3 -8 12 -12 20 -9 8 3
14 0 14 -7 0 -6 5 -8 10 -5 6 3 10 1 10 -6 0 -8 4 -8 15 1 9 7 19 10 22 6 4
-4 1 -11 -6 -15 -9 -6 -4 -12 18 -22 17 -8 31 -17 31 -21 0 -3 9 -4 20 -1 12
3 20 0 20 -7 0 -7 8 -10 20 -7 19 5 45 -14 34 -26 -3 -3 4 -8 15 -12 11 -3 30
-18 41 -32 18 -24 25 -20 21 12 -1 6 7 0 18 -12 11 -13 24 -23 30 -23 6 0 11
-8 11 -17 0 -13 2 -15 8 -5 10 15 42 5 42 -13 0 -20 20 -29 33 -16 8 8 16 6
29 -6 23 -21 23 -35 -2 -51 -27 -16 -15 -35 16 -28 13 4 32 2 41 -3 10 -5 27
-13 38 -16 15 -6 17 -8 5 -12 -44 -14 -46 -15 -25 -23 18 -8 18 -9 -4 -9 -14
-1 -35 9 -48 21 -22 20 -24 21 -42 3 -18 -15 -22 -16 -35 -2 -13 12 -22 13
-68 1 -67 -18 -79 -18 -72 1 5 12 -2 15 -32 14 -34 -1 -36 -2 -14 -9 18 -6 20
-8 7 -9 -10 -1 -32 6 -49 15 -17 9 -40 13 -54 10 -26 -7 -64 12 -64 31 0 7 -4
13 -10 13 -5 0 -10 -8 -10 -17 -1 -17 -1 -17 -11 0 -13 23 12 52 30 34 8 -8
11 -7 11 6 0 9 7 17 16 17 13 0 14 3 4 15 -10 12 -15 12 -34 0 -20 -13 -24
-13 -44 5 -24 23 -38 25 -46 8 -5 -10 -7 -10 -12 0 -3 6 -21 12 -39 12 -19 0
-37 5 -40 10 -3 6 -17 10 -30 10 -13 0 -26 4 -30 10 -4 6 -15 6 -32 -1 -19 -7
-28 -6 -34 2 -4 7 -15 9 -24 5 -24 -9 -43 6 -19 15 11 5 2 6 -22 2 -29 -3 -49
0 -65 10 -13 9 -52 18 -87 20 -35 3 -69 10 -75 16 -8 8 -8 11 0 11 6 0 14 -6
16 -12 3 -8 6 -6 6 5 1 13 -7 17 -34 17 -23 0 -35 5 -35 14 0 7 -7 19 -15 26
-13 11 -13 14 2 26 10 7 13 14 6 14 -6 0 -15 -4 -18 -10 -13 -21 -30 -9 -30
20 0 31 13 38 33 18 7 -7 12 -8 12 -4 0 5 -8 15 -17 23 -16 13 -16 14 -1 9 12
-3 15 -1 12 9 -4 10 3 13 31 10 28 -2 35 0 31 11 -7 17 17 18 44 2 16 -10 22
-10 33 5 7 10 17 17 22 16 6 -1 18 1 29 6 11 5 26 3 37 -4 11 -6 19 -7 19 -2
0 5 -5 11 -12 13 -6 2 -8 10 -4 16 10 17 26 15 26 -3z m-260 -34 c0 -5 -7 -11
-15 -15 -15 -5 -20 5 -8 17 9 10 23 9 23 -2z m737 -137 c-3 -3 -12 -4 -19 -1
-8 3 -5 6 6 6 11 1 17 -2 13 -5z m123 -59 c0 -8 -4 -15 -10 -15 -5 0 -10 7
-10 15 0 8 5 15 10 15 6 0 10 -7 10 -15z m3257 9 c-3 -3 -12 -4 -19 -1 -8 3
-5 6 6 6 11 1 17 -2 13 -5z m-3488 -172 c-11 -2 -15 -10 -12 -23 3 -11 0 -19
-7 -19 -7 0 -10 7 -6 15 3 8 0 15 -6 15 -7 0 -3 6 7 14 11 8 24 11 30 8 6 -4
3 -8 -6 -10z m-59 -22 c0 -5 -9 -10 -21 -10 -11 0 -17 5 -14 10 3 6 13 10 21
10 8 0 14 -4 14 -10z m567 -22 c-3 -8 -6 -5 -6 6 -1 11 2 17 5 13 3 -3 4 -12
1 -19z m-147 -58 c0 -5 -4 -10 -10 -10 -5 0 -10 5 -10 10 0 6 5 10 10 10 6 0
10 -4 10 -10z m90 -170 c0 -5 -2 -10 -4 -10 -3 0 -8 5 -11 10 -3 6 -1 10 4 10
6 0 11 -4 11 -10z m4747 -266 c-3 -3 -12 -4 -19 -1 -8 3 -5 6 6 6 11 1 17 -2
13 -5z m273 -25 c0 -6 -4 -7 -10 -4 -5 3 -10 11 -10 16 0 6 5 7 10 4 6 -3 10
-11 10 -16z m260 -21 c0 -7 -5 -6 -13 1 -8 6 -18 7 -22 3 -5 -4 -5 -2 -1 5 8
14 36 6 36 -9z m164 -83 c3 -8 1 -15 -4 -15 -6 0 -10 7 -10 15 0 8 2 15 4 15
2 0 6 -7 10 -15z m126 -74 c0 -5 8 -12 18 -14 13 -4 14 -5 1 -6 -8 0 -24 6
-35 14 -17 13 -17 14 -1 15 9 0 17 -4 17 -9z m150 -201 c-8 -5 -18 -6 -24 -3
-5 4 -1 10 10 13 24 9 34 2 14 -10z m310 -84 c0 -3 -4 -8 -10 -11 -5 -3 -10
-1 -10 4 0 6 5 11 10 11 6 0 10 -2 10 -4z m764 -271 c-4 -8 -7 -15 -9 -15 -2
0 -5 7 -9 15 -3 9 0 15 9 15 9 0 12 -6 9 -15z m-4 -59 c0 -3 -4 -8 -10 -11 -5
-3 -10 -1 -10 4 0 6 5 11 10 11 6 0 10 -2 10 -4z m387 -108 c-3 -8 -6 -5 -6 6
-1 11 2 17 5 13 3 -3 4 -12 1 -19z m78 -28 c3 -5 -1 -10 -9 -10 -9 0 -16 5
-16 10 0 6 4 10 9 10 6 0 13 -4 16 -10z m-15 -64 c0 -3 -4 -8 -10 -11 -5 -3
-10 -1 -10 4 0 6 5 11 10 11 6 0 10 -2 10 -4z m364 -191 c-4 -8 -10 -13 -15
-10 -4 3 -6 12 -3 20 4 8 10 13 15 10 4 -3 6 -12 3 -20z m40 -7 c-9 -30 -10
-31 -24 -23 -8 5 -6 13 6 26 22 25 27 24 18 -3z m156 -59 c0 -6 -4 -7 -10 -4
-5 3 -10 11 -10 16 0 6 5 7 10 4 6 -3 10 -11 10 -16z m507 -141 c-3 -8 -6 -5
-6 6 -1 11 2 17 5 13 3 -3 4 -12 1 -19z m493 -128 c0 -5 -5 -10 -11 -10 -5 0
-7 5 -4 10 3 6 8 10 11 10 2 0 4 -4 4 -10z m-508 -35 c3 -14 2 -25 -2 -25 -4
0 -10 13 -12 29 -5 36 8 32 14 -4z m357 -9 c0 -29 -1 -30 -10 -8 -6 15 -13 21
-21 16 -10 -6 -11 -5 -1 8 7 8 10 18 6 22 -4 4 0 4 10 0 11 -4 17 -17 16 -38z
m-379 14 c0 -5 -4 -10 -10 -10 -5 0 -10 5 -10 10 0 6 5 10 10 10 6 0 10 -4 10
-10z m-40 -23 c0 -8 -7 -14 -15 -14 -8 0 -15 6 -15 14 0 7 7 13 15 13 8 0 15
-6 15 -13z m387 -13 c3 -8 0 -21 -7 -27 -9 -8 -11 -9 -7 -1 4 7 0 14 -8 18 -8
3 -15 10 -15 16 0 16 30 12 37 -6z m-357 -4 c0 -5 -4 -10 -10 -10 -5 0 -10 5
-10 10 0 6 5 10 10 10 6 0 10 -4 10 -10z m420 -16 c0 -8 5 -12 10 -9 6 3 10 0
10 -7 0 -7 3 -24 6 -38 5 -23 5 -24 -7 -5 -7 11 -18 24 -26 28 -15 9 -18 47
-3 47 6 0 10 -7 10 -16z m-123 0 c-3 -3 -12 -4 -19 -1 -8 3 -5 6 6 6 11 1 17
-2 13 -5z m-58 -17 c8 -10 7 -17 -1 -25 -9 -9 -9 -12 0 -12 7 0 12 -5 12 -11
0 -8 -5 -7 -16 2 -13 10 -17 10 -24 -1 -15 -24 -23 -3 -9 22 7 12 12 26 11 31
-3 12 15 8 27 -6z m93 -52 c4 -17 1 -25 -8 -25 -9 0 -14 11 -14 31 0 35 15 31
22 -6z m-60 -41 c-6 -10 -6 -33 0 -56 11 -49 2 -82 -19 -74 -8 3 -19 6 -24 6
-5 0 -9 7 -9 15 0 8 7 15 16 15 13 0 15 7 11 33 -3 17 -8 40 -12 49 -5 12 0
18 17 21 13 2 24 5 26 6 2 0 -1 -6 -6 -15z m687 -66 c1 -5 -3 -8 -7 -8 -4 0
-8 12 -9 28 -1 23 -1 24 7 7 5 -11 9 -23 9 -27z m-579 12 c0 -5 -4 -10 -9 -10
-6 0 -13 5 -16 10 -3 6 1 10 9 10 9 0 16 -4 16 -10z m640 -49 c0 -11 3 -28 7
-38 6 -16 5 -16 -10 -4 -9 7 -17 20 -17 27 0 8 -3 13 -7 13 -17 -3 -24 2 -18
11 11 18 45 11 45 -9z m-880 -31 c0 -5 -5 -10 -11 -10 -5 0 -7 5 -4 10 3 6 8
10 11 10 2 0 4 -4 4 -10z m160 -70 c-13 -11 -26 -18 -28 -15 -6 6 28 34 42 35
5 0 -1 -9 -14 -20z m-45 -46 c9 -50 0 -53 -13 -4 -5 22 -6 40 -2 40 4 0 11
-16 15 -36z m824 -11 c0 -25 -1 -25 -8 -8 -5 11 -7 23 -4 28 8 14 13 7 12 -20z
m11 -117 c0 -8 -4 -18 -10 -21 -5 -3 -10 3 -10 14 0 12 5 21 10 21 6 0 10 -6
10 -14z m-735 -244 c-3 -3 -11 0 -18 7 -9 10 -8 11 6 5 10 -3 15 -9 12 -12z
m952 -14 c-3 -8 -6 -5 -6 6 -1 11 2 17 5 13 3 -3 4 -12 1 -19z m-1010 -40 c-3
-7 -5 -2 -5 12 0 14 2 19 5 13 2 -7 2 -19 0 -25z m69 -5 c16 -16 30 -79 14
-70 -3 2 -20 9 -37 16 -36 14 -45 32 -13 24 18 -5 20 -2 16 21 -6 31 -5 31 20
9z m-76 -73 c0 -5 -2 -10 -4 -10 -3 0 -8 5 -11 10 -3 6 -1 10 4 10 6 0 11 -4
11 -10z m1420 -286 c0 -8 -4 -12 -10 -9 -5 3 -10 10 -10 16 0 5 5 9 10 9 6 0
10 -7 10 -16z m190 -169 c0 -8 -4 -15 -10 -15 -5 0 -10 7 -10 15 0 8 5 15 10
15 6 0 10 -7 10 -15z m34 -214 c-6 -6 -24 19 -24 34 1 6 7 1 15 -9 8 -11 12
-22 9 -25z m343 -143 c-3 -8 -6 -5 -6 6 -1 11 2 17 5 13 3 -3 4 -12 1 -19z
m396 -161 c4 -10 -2 -13 -21 -9 -24 5 -25 6 -7 13 11 4 21 8 21 8 1 1 4 -5 7
-12z"/>
<path d="M14550 17480 c0 -5 4 -10 9 -10 6 0 13 5 16 10 3 6 -1 10 -9 10 -9 0
-16 -4 -16 -10z"/>
<path d="M14650 17420 c-13 -8 -12 -10 3 -10 9 0 17 5 17 10 0 12 -1 12 -20 0z"/>
<path d="M14605 17400 c4 -6 11 -8 16 -5 14 9 11 15 -7 15 -8 0 -12 -5 -9 -10z"/>
<path d="M14640 17350 c0 -5 5 -10 11 -10 5 0 7 5 4 10 -3 6 -8 10 -11 10 -2
0 -4 -4 -4 -10z"/>
<path d="M14660 17230 c0 -5 5 -10 11 -10 5 0 7 5 4 10 -3 6 -8 10 -11 10 -2
0 -4 -4 -4 -10z"/>
<path d="M14630 17210 c0 -8 5 -22 10 -30 9 -13 10 -13 10 0 0 8 -5 22 -10 30
-9 13 -10 13 -10 0z"/>
<path d="M14676 17187 c3 -10 9 -15 12 -12 3 3 0 11 -7 18 -10 9 -11 8 -5 -6z"/>
<path d="M14481 15874 c0 -11 3 -14 6 -6 3 7 2 16 -1 19 -3 4 -6 -2 -5 -13z"/>
<path d="M10538 15483 c-21 -5 -24 -23 -4 -23 8 0 16 7 20 15 3 8 4 14 3 14
-1 -1 -10 -3 -19 -6z"/>
<path d="M10641 15474 c0 -11 3 -14 6 -6 3 7 2 16 -1 19 -3 4 -6 -2 -5 -13z"/>
<path d="M14270 15430 c0 -5 5 -10 10 -10 6 0 10 5 10 10 0 6 -4 10 -10 10 -5
0 -10 -4 -10 -10z"/>
<path d="M10670 15420 c0 -5 5 -10 10 -10 6 0 10 5 10 10 0 6 -4 10 -10 10 -5
0 -10 -4 -10 -10z"/>
<path d="M10600 15409 c0 -11 27 -12 34 -1 2 4 -4 9 -15 9 -10 1 -19 -2 -19
-8z"/>
<path d="M10668 15393 c7 -3 16 -2 19 1 4 3 -2 6 -13 5 -11 0 -14 -3 -6 -6z"/>
<path d="M10778 15393 c7 -3 16 -2 19 1 4 3 -2 6 -13 5 -11 0 -14 -3 -6 -6z"/>
<path d="M10784 15355 c11 -8 29 -14 40 -14 17 1 18 2 4 6 -10 2 -18 9 -18 14
0 5 -10 9 -22 9 -22 -1 -23 -1 -4 -15z"/>
<path d="M10915 15260 c-3 -5 1 -10 9 -10 9 0 16 5 16 10 0 6 -4 10 -9 10 -6
0 -13 -4 -16 -10z"/>
<path d="M11638 15113 c7 -3 16 -2 19 1 4 3 -2 6 -13 5 -11 0 -14 -3 -6 -6z"/>
<path d="M11085 15051 c-3 -5 -1 -12 4 -15 5 -3 11 1 15 9 6 16 -9 21 -19 6z"/>
<path d="M11120 15036 c0 -9 5 -16 11 -16 5 0 8 -4 4 -9 -3 -6 10 -7 32 -4 34
6 36 4 25 -9 -10 -13 -10 -17 1 -21 7 -2 18 6 24 19 10 23 9 24 -21 24 -17 0
-42 7 -54 16 -20 14 -22 14 -22 0z"/>
<path d="M11320 15010 c8 -5 22 -10 30 -10 13 0 13 1 0 10 -8 5 -22 10 -30 10
-13 0 -13 -1 0 -10z"/>
<path d="M11363 14997 c-38 -9 -60 -27 -32 -27 5 0 8 -4 4 -9 -3 -6 11 -13 32
-16 21 -4 46 -9 56 -12 13 -3 17 2 17 26 0 17 5 31 10 31 6 0 10 5 10 10 0 12
-40 11 -97 -3z"/>
<path d="M11278 14993 c7 -3 16 -2 19 1 4 3 -2 6 -13 5 -11 0 -14 -3 -6 -6z"/>
<path d="M11080 14980 c0 -5 5 -10 10 -10 6 0 10 5 10 10 0 6 -4 10 -10 10 -5
0 -10 -4 -10 -10z"/>
<path d="M11125 14980 c-3 -5 1 -10 10 -10 9 0 13 5 10 10 -3 6 -8 10 -10 10
-2 0 -7 -4 -10 -10z"/>
<path d="M11040 14955 c0 -8 5 -15 10 -15 6 0 10 7 10 15 0 8 -4 15 -10 15 -5
0 -10 -7 -10 -15z"/>
<path d="M11150 14950 c0 -5 5 -10 10 -10 6 0 10 5 10 10 0 6 -4 10 -10 10 -5
0 -10 -4 -10 -10z"/>
<path d="M11186 14952 c-3 -6 -1 -14 5 -17 15 -10 25 3 12 16 -7 7 -13 7 -17
1z"/>
<path d="M11112 14934 c-7 -8 -8 -14 -3 -14 10 0 25 19 20 25 -2 1 -10 -3 -17
-11z"/>
<path d="M11017 14914 c6 -15 23 -19 23 -5 0 5 -7 11 -14 14 -10 4 -13 1 -9
-9z"/>
<path d="M11130 14915 c-10 -12 -10 -15 3 -15 19 0 31 16 18 24 -5 3 -14 -1
-21 -9z"/>
<path d="M11155 14880 c-3 -5 3 -10 14 -10 12 0 21 5 21 10 0 6 -6 10 -14 10
-8 0 -18 -4 -21 -10z"/>
<path d="M11280 14874 c0 -8 5 -12 10 -9 6 3 10 10 10 16 0 5 -4 9 -10 9 -5 0
-10 -7 -10 -16z"/>
<path d="M10970 14830 c0 -5 7 -10 15 -10 8 0 15 5 15 10 0 6 -7 10 -15 10 -8
0 -15 -4 -15 -10z"/>
<path d="M11150 14814 c0 -8 5 -12 10 -9 6 3 10 10 10 16 0 5 -4 9 -10 9 -5 0
-10 -7 -10 -16z"/>
<path d="M11750 14825 c-1 -5 -2 -13 -1 -17 0 -5 -10 -8 -24 -8 -14 0 -25 -4
-25 -10 0 -5 11 -10 25 -10 26 0 41 19 32 42 -3 7 -6 9 -7 3z"/>
<path d="M10990 14790 c0 -5 5 -10 10 -10 6 0 10 5 10 10 0 6 -4 10 -10 10 -5
0 -10 -4 -10 -10z"/>
<path d="M11183 14773 c-17 -6 -17 -33 0 -33 7 0 13 9 13 20 0 11 0 20 -1 19
0 0 -6 -3 -12 -6z"/>
<path d="M11103 14759 c-6 -6 -9 -17 -7 -24 3 -7 0 -16 -6 -20 -7 -4 -14 2
-17 14 -3 11 -9 18 -14 15 -15 -9 -10 -36 9 -50 10 -8 12 -13 5 -14 -18 0 -16
-20 1 -20 7 0 19 7 26 15 10 12 10 15 -1 15 -11 0 -11 2 1 10 9 6 17 5 22 -3
6 -9 8 -9 8 0 0 6 -5 15 -10 18 -6 3 -7 17 -4 31 7 27 4 30 -13 13z"/>
<path d="M11026 14731 c-4 -7 -5 -15 -2 -18 9 -9 19 4 14 18 -4 11 -6 11 -12
0z"/>
<path d="M11130 14730 c0 -5 7 -10 15 -10 8 0 15 5 15 10 0 6 -7 10 -15 10 -8
0 -15 -4 -15 -10z"/>
<path d="M11205 14690 c-3 -5 -2 -10 4 -10 5 0 13 5 16 10 3 6 2 10 -4 10 -5
0 -13 -4 -16 -10z"/>
<path d="M11099 14651 c-13 -11 -21 -22 -17 -26 4 -4 13 -2 20 4 7 7 22 18 33
26 17 12 17 14 4 15 -9 0 -27 -9 -40 -19z"/>
<path d="M11065 14600 c3 -5 8 -10 11 -10 2 0 4 5 4 10 0 6 -5 10 -11 10 -5 0
-7 -4 -4 -10z"/>
<path d="M12850 14601 c0 -6 5 -13 10 -16 6 -3 10 1 10 9 0 9 -4 16 -10 16 -5
0 -10 -4 -10 -9z"/>
<path d="M11117 14594 c-4 -4 -7 -14 -7 -23 0 -11 3 -12 11 -4 6 6 10 16 7 23
-2 6 -7 8 -11 4z"/>
<path d="M12845 14560 c-3 -5 -1 -10 4 -10 6 0 11 5 11 10 0 6 -2 10 -4 10 -3
0 -8 -4 -11 -10z"/>
<path d="M12811 14544 c0 -11 3 -14 6 -6 3 7 2 16 -1 19 -3 4 -6 -2 -5 -13z"/>
<path d="M11080 14372 c0 -4 12 -8 28 -9 23 -1 24 -1 7 7 -26 11 -35 12 -35 2z"/>
<path d="M13916 14353 c-6 -14 -5 -15 5 -6 7 7 10 15 7 18 -3 3 -9 -2 -12 -12z"/>
<path d="M9650 14277 c0 -9 -5 -17 -11 -17 -5 0 -7 -4 -4 -10 3 -5 10 -10 15
-10 13 0 21 33 10 44 -7 7 -10 5 -10 -7z"/>
<path d="M9638 14213 c7 -3 16 -2 19 1 4 3 -2 6 -13 5 -11 0 -14 -3 -6 -6z"/>
<path d="M11135 14200 c4 -6 11 -8 16 -5 14 9 11 15 -7 15 -8 0 -12 -5 -9 -10z"/>
<path d="M9460 14160 c0 -5 5 -10 11 -10 5 0 7 5 4 10 -3 6 -8 10 -11 10 -2 0
-4 -4 -4 -10z"/>
<path d="M9260 14140 c0 -5 5 -10 10 -10 6 0 10 5 10 10 0 6 -4 10 -10 10 -5
0 -10 -4 -10 -10z"/>
<path d="M9430 14129 c0 -5 5 -7 10 -4 6 3 10 8 10 11 0 2 -4 4 -10 4 -5 0
-10 -5 -10 -11z"/>
<path d="M11170 14100 c0 -5 5 -10 11 -10 5 0 7 5 4 10 -3 6 -8 10 -11 10 -2
0 -4 -4 -4 -10z"/>
<path d="M10105 13539 c-10 -15 3 -25 16 -12 7 7 7 13 1 17 -6 3 -14 1 -17 -5z"/>
<path d="M10400 13374 c0 -8 5 -12 10 -9 6 4 8 11 5 16 -9 14 -15 11 -15 -7z"/>
<path d="M13160 13200 c0 -5 5 -10 10 -10 6 0 10 5 10 10 0 6 -4 10 -10 10 -5
0 -10 -4 -10 -10z"/>
<path d="M10890 12604 c-9 -10 -7 -19 7 -38 20 -28 33 -33 33 -13 0 6 3 22 6
33 7 26 -29 40 -46 18z m40 -14 c0 -5 -4 -10 -10 -10 -5 0 -10 5 -10 10 0 6 5
10 10 10 6 0 10 -4 10 -10z"/>
<path d="M13450 12341 c-5 -11 -10 -25 -10 -31 0 -10 -6 -18 -36 -53 -18 -21
-56 -108 -50 -114 3 -3 -3 -12 -14 -20 -11 -8 -20 -23 -20 -34 0 -10 -4 -19
-9 -19 -5 0 -11 -13 -14 -30 -4 -16 -16 -51 -27 -77 -19 -43 -35 -75 -105
-210 -11 -22 -30 -53 -43 -71 -13 -18 -20 -32 -15 -32 4 0 0 -5 -9 -11 -10 -5
-18 -17 -18 -26 0 -19 -58 -113 -70 -113 -4 0 -13 -20 -20 -45 -7 -25 -16 -45
-20 -45 -8 0 -19 -51 -26 -119 -2 -20 3 -110 11 -201 8 -91 19 -232 26 -315
15 -207 36 -314 59 -300 12 7 45 73 60 120 7 22 21 56 31 75 11 19 19 40 19
47 0 8 5 22 10 33 6 11 15 29 20 40 6 11 17 57 26 100 13 69 13 83 1 100 -8
11 -17 18 -20 15 -4 -3 -3 0 2 6 6 8 4 20 -6 35 -8 13 -13 30 -10 38 3 8 1 16
-4 18 -15 5 6 135 42 253 12 39 24 84 26 100 3 17 9 32 14 35 4 3 10 17 12 30
2 14 7 32 10 40 3 8 13 35 21 60 25 73 41 114 49 127 4 7 10 25 12 40 3 16 9
47 15 71 6 23 12 55 14 70 2 15 6 34 9 42 20 50 47 142 47 159 0 11 4 21 9 23
5 2 12 23 15 48 3 25 12 68 20 95 7 28 12 53 9 58 -8 14 -32 7 -43 -12z"/>
<path d="M10930 12206 c0 -9 5 -16 10 -16 6 0 10 4 10 9 0 6 -4 13 -10 16 -5
3 -10 -1 -10 -9z"/>
<path d="M11367 11981 c-3 -12 -1 -21 3 -21 15 0 23 21 12 32 -6 6 -11 2 -15
-11z"/>
<path d="M11680 10719 c0 -5 5 -7 10 -4 6 3 10 8 10 11 0 2 -4 4 -10 4 -5 0
-10 -5 -10 -11z"/>
<path d="M11901 10386 c-23 -24 -17 -37 16 -42 17 -3 26 13 13 21 -5 3 -10 11
-10 16 0 6 5 7 10 4 6 -3 10 -2 10 4 0 21 -18 19 -39 -3z"/>
<path d="M11962 10335 c0 -16 2 -22 5 -12 2 9 2 23 0 30 -3 6 -5 -1 -5 -18z"/>
<path d="M12150 10049 c0 -5 5 -7 10 -4 6 3 10 8 10 11 0 2 -4 4 -10 4 -5 0
-10 -5 -10 -11z"/>
<path d="M12301 9974 c-11 -13 -11 -20 -1 -39 7 -13 10 -28 6 -33 -3 -6 -2
-13 3 -16 13 -8 18 2 25 49 4 30 3 34 -3 15 -8 -22 -9 -22 -11 -5 -1 11 -2 26
-1 33 2 15 -1 15 -18 -4z"/>
<path d="M13070 9550 c0 -5 5 -10 10 -10 6 0 10 5 10 10 0 6 -4 10 -10 10 -5
0 -10 -4 -10 -10z"/>
<path d="M13070 9510 c0 -5 5 -10 10 -10 6 0 10 5 10 10 0 6 -4 10 -10 10 -5
0 -10 -4 -10 -10z"/>
<path d="M8600 8696 c0 -2 7 -9 15 -16 12 -10 15 -10 15 4 0 9 -7 16 -15 16
-8 0 -15 -2 -15 -4z"/>
<path d="M8640 7830 c0 -5 5 -10 11 -10 5 0 7 5 4 10 -3 6 -8 10 -11 10 -2 0
-4 -4 -4 -10z"/>
<path d="M10970 6855 c0 -9 5 -15 11 -13 6 2 11 8 11 13 0 5 -5 11 -11 13 -6
2 -11 -4 -11 -13z"/>
<path d="M14895 6690 c-3 -6 1 -7 9 -4 18 7 21 14 7 14 -6 0 -13 -4 -16 -10z"/>
<path d="M10965 6470 c-3 -5 -2 -10 4 -10 5 0 13 5 16 10 3 6 2 10 -4 10 -5 0
-13 -4 -16 -10z"/>
<path d="M9730 5416 c0 -2 7 -7 16 -10 8 -3 12 -2 9 4 -6 10 -25 14 -25 6z"/>
<path d="M11878 4293 c7 -3 16 -2 19 1 4 3 -2 6 -13 5 -11 0 -14 -3 -6 -6z"/>
<path d="M11910 4283 c0 -9 8 -9 30 -2 38 14 38 16 0 15 -16 -1 -30 -6 -30
-13z"/>
<path d="M12650 4170 c0 -5 5 -10 11 -10 5 0 7 5 4 10 -3 6 -8 10 -11 10 -2 0
-4 -4 -4 -10z"/>
<path d="M14245 3391 c-3 -5 -1 -12 5 -16 12 -7 30 2 30 16 0 12 -27 12 -35 0z"/>
<path d="M14430 3370 c0 -5 6 -10 14 -10 8 0 18 5 21 10 3 6 -3 10 -14 10 -12
0 -21 -4 -21 -10z"/>
<path d="M14520 3300 c0 -5 4 -10 9 -10 6 0 13 5 16 10 3 6 -1 10 -9 10 -9 0
-16 -4 -16 -10z"/>
<path d="M14800 3290 c0 -5 5 -10 11 -10 5 0 7 5 4 10 -3 6 -8 10 -11 10 -2 0
-4 -4 -4 -10z"/>
<path d="M14936 3235 c4 -8 8 -15 10 -15 2 0 4 7 4 15 0 8 -4 15 -10 15 -5 0
-7 -7 -4 -15z"/>
<path d="M14730 3211 c0 -12 41 -42 49 -36 5 3 11 -5 15 -18 5 -22 46 -36 46
-16 0 5 -5 9 -11 9 -15 0 -38 31 -39 51 0 11 -9 16 -30 16 -16 0 -30 -3 -30
-6z"/>
<path d="M14900 3200 c0 -5 5 -10 10 -10 6 0 10 5 10 10 0 6 -4 10 -10 10 -5
0 -10 -4 -10 -10z"/>
<path d="M15102 3044 c15 -16 15 -19 0 -42 -13 -21 -14 -24 -2 -20 8 3 14 11
13 17 -2 6 4 11 13 11 12 0 14 3 6 13 -6 6 -10 17 -11 22 0 6 -8 12 -18 13
-17 4 -17 3 -1 -14z"/>
<path d="M15147 2996 c-6 -15 1 -26 15 -26 4 0 8 9 8 20 0 23 -15 27 -23 6z"/>
<path d="M15423 2961 c3 -13 -1 -21 -10 -23 -10 -2 -15 -20 -18 -63 l-4 -59
21 33 c17 27 19 37 10 52 -18 28 -15 31 13 13 23 -15 25 -15 25 0 0 9 -6 16
-12 16 -7 0 -5 5 5 11 14 8 16 14 6 25 -18 21 -42 18 -36 -5z"/>
<path d="M15115 2950 c3 -5 8 -10 11 -10 2 0 4 5 4 10 0 6 -5 10 -11 10 -5 0
-7 -4 -4 -10z"/>
<path d="M15335 2910 c-8 -26 3 -60 20 -60 15 0 25 32 18 60 -3 11 -11 20 -18
20 -8 0 -17 -9 -20 -20z"/>
<path d="M15838 2893 c7 -3 16 -2 19 1 4 3 -2 6 -13 5 -11 0 -14 -3 -6 -6z"/>
<path d="M15815 2840 c3 -5 8 -10 11 -10 2 0 4 5 4 10 0 6 -5 10 -11 10 -5 0
-7 -4 -4 -10z"/>
<path d="M15710 2825 c0 -8 7 -15 15 -15 8 0 15 7 15 15 0 8 -7 15 -15 15 -8
0 -15 -7 -15 -15z"/>
<path d="M16311 2754 c-7 -8 -11 -17 -9 -20 3 -2 13 5 23 16 10 11 14 20 9 20
-5 -1 -15 -8 -23 -16z"/>
<path d="M15985 2740 c-3 -5 -1 -10 4 -10 6 0 11 5 11 10 0 6 -2 10 -4 10 -3
0 -8 -4 -11 -10z"/>
<path d="M16336 2653 c-12 -12 -6 -43 9 -43 8 0 15 9 15 19 0 21 -13 34 -24
24z"/>
<path d="M16472 2554 c-7 -8 -8 -14 -3 -14 10 0 25 19 20 25 -2 1 -10 -3 -17
-11z"/>
<path d="M16477 2469 c-4 -15 -2 -19 10 -15 8 3 24 6 35 6 29 0 16 24 -14 27
-19 1 -28 -4 -31 -18z"/>
<path d="M16930 1794 c0 -8 5 -12 10 -9 6 3 10 10 10 16 0 5 -4 9 -10 9 -5 0
-10 -7 -10 -16z"/>
<path d="M18675 1220 c-3 -5 -1 -10 4 -10 6 0 11 5 11 10 0 6 -2 10 -4 10 -3
0 -8 -4 -11 -10z"/>
<path d="M17442 1190 c0 -14 2 -19 5 -12 2 6 2 18 0 25 -3 6 -5 1 -5 -13z"/>
<path d="M17530 1191 c0 -12 5 -21 10 -21 6 0 10 6 10 14 0 8 -4 18 -10 21 -5
3 -10 -3 -10 -14z"/>
<path d="M17564 1169 c-5 -9 -1 -11 14 -7 12 3 23 2 26 -3 2 -5 3 -4 2 3 -4
17 -32 22 -42 7z"/>
<path d="M17656 1145 c6 -29 6 -29 -11 -10 -16 20 -16 20 -11 -5 3 -14 6 -28
6 -32 0 -5 4 -8 9 -8 14 0 22 49 11 68 -8 13 -9 10 -4 -13z"/>
<path d="M17687 1164 c-4 -4 -7 -14 -7 -23 0 -11 3 -12 11 -4 6 6 10 16 7 23
-2 6 -7 8 -11 4z"/>
<path d="M17572 1118 c2 -18 10 -23 31 -23 19 -1 26 3 22 13 -3 7 -5 19 -5 25
0 6 -7 2 -15 -9 -13 -16 -14 -16 -9 -1 4 12 1 17 -11 17 -11 0 -15 -7 -13 -22z"/>
<path d="M17650 1020 c0 -5 5 -10 11 -10 5 0 7 5 4 10 -3 6 -8 10 -11 10 -2 0
-4 -4 -4 -10z"/>
<path d="M17820 1020 c0 -5 5 -10 11 -10 5 0 7 5 4 10 -3 6 -8 10 -11 10 -2 0
-4 -4 -4 -10z"/>
<path d="M17885 985 c4 -16 8 -36 8 -42 0 -18 17 -16 17 1 0 7 -7 27 -16 42
l-16 29 7 -30z"/>
<path d="M18140 881 c0 -6 4 -13 10 -16 6 -3 7 1 4 9 -7 18 -14 21 -14 7z"/>
<path d="M18311 883 c-1 -16 27 -43 46 -43 13 0 13 3 3 15 -7 8 -18 15 -25 15
-8 0 -16 6 -18 13 -4 8 -6 9 -6 0z"/>
<path d="M18230 859 c0 -5 5 -7 10 -4 6 3 10 8 10 11 0 2 -4 4 -10 4 -5 0 -10
-5 -10 -11z"/>
<path d="M18380 856 c0 -2 7 -7 16 -10 8 -3 12 -2 9 4 -6 10 -25 14 -25 6z"/>
<path d="M18273 829 c6 -10 15 -19 18 -19 4 0 9 -9 12 -21 3 -12 10 -18 17
-14 8 5 7 12 -4 24 -9 10 -16 24 -16 32 1 10 4 9 14 -4 10 -12 16 -15 21 -7
10 16 0 22 -39 26 -32 2 -34 1 -23 -17z"/>
<path d="M8030 15370 c0 -5 5 -10 10 -10 6 0 10 5 10 10 0 6 -4 10 -10 10 -5
0 -10 -4 -10 -10z"/>
<path d="M8170 14640 c0 -5 5 -10 10 -10 6 0 10 5 10 10 0 6 -4 10 -10 10 -5
0 -10 -4 -10 -10z"/>
<path d="M8995 14100 c3 -5 10 -10 16 -10 5 0 9 5 9 10 0 6 -7 10 -16 10 -8 0
-12 -4 -9 -10z"/>
<path d="M8551 13914 c0 -11 3 -14 6 -6 3 7 2 16 -1 19 -3 4 -6 -2 -5 -13z"/>
<path d="M13130 13813 c0 -13 5 -23 10 -23 13 0 13 11 0 30 -8 12 -10 11 -10
-7z"/>
<path d="M13390 13700 c0 -5 5 -10 10 -10 6 0 10 5 10 10 0 6 -4 10 -10 10 -5
0 -10 -4 -10 -10z"/>
<path d="M10020 11936 c0 -9 5 -16 10 -16 6 0 10 4 10 9 0 6 -4 13 -10 16 -5
3 -10 -1 -10 -9z"/>
<path d="M10130 11750 c-12 -8 -11 -10 8 -10 12 0 22 5 22 10 0 13 -11 13 -30
0z"/>
<path d="M9800 11721 c0 -5 9 -13 20 -16 11 -3 20 -11 20 -17 0 -6 3 -8 7 -5
3 4 -2 16 -12 27 -19 21 -35 26 -35 11z"/>
<path d="M6215 4980 c3 -5 8 -10 11 -10 2 0 4 5 4 10 0 6 -5 10 -11 10 -5 0
-7 -4 -4 -10z"/>
<path d="M7130 4841 c0 -5 5 -13 10 -16 6 -3 10 -2 10 4 0 5 -4 13 -10 16 -5
3 -10 2 -10 -4z"/>
<path d="M7050 4825 c-7 -9 -11 -18 -8 -20 3 -3 11 1 18 10 7 9 11 18 8 20 -3
3 -11 -1 -18 -10z"/>
<path d="M6980 4811 c0 -6 5 -13 10 -16 6 -3 10 1 10 9 0 9 -4 16 -10 16 -5 0
-10 -4 -10 -9z"/>
<path d="M7200 4794 c0 -8 5 -12 10 -9 6 4 8 11 5 16 -9 14 -15 11 -15 -7z"/>
<path d="M7063 4793 c-22 -8 -14 -18 14 -20 14 0 22 2 17 6 -5 3 -11 9 -14 12
-3 4 -11 4 -17 2z"/>
<path d="M7140 4785 c0 -8 -5 -15 -11 -15 -6 0 -4 -7 5 -15 8 -8 23 -15 32
-15 14 0 15 3 6 12 -7 7 -12 20 -12 30 0 10 -4 18 -10 18 -5 0 -10 -7 -10 -15z"/>
<path d="M7040 4750 c0 -5 5 -10 10 -10 6 0 10 5 10 10 0 6 -4 10 -10 10 -5 0
-10 -4 -10 -10z"/>
</g>
</svg>
